<svg width="915" height="540" viewBox="0 0 915 540" fill="none" xmlns="http://www.w3.org/2000/svg">
<path d="M599.111 404.068H291V399.957H599.111V404.068Z" fill="#018AFE"/>
<path d="M155.904 404.068H118.316C118.136 404.068 118 403.933 118 403.752V401.358C118 401.177 118.136 400.996 118.316 400.996H155.904C156.085 400.996 156.265 401.177 156.265 401.358V403.752C156.265 403.933 156.085 404.068 155.904 404.068Z" fill="#018AFE"/>
<path d="M817.904 404.068H780.316C780.136 404.068 780 403.933 780 403.752V401.358C780 401.177 780.136 400.996 780.316 400.996H817.904C818.085 400.996 818.265 401.177 818.265 401.358V403.752C818.265 403.933 818.085 404.068 817.904 404.068Z" fill="#018AFE"/>
<path d="M751.125 466.91H713.312C713.176 466.91 713.086 466.82 713.086 466.684V465.058C713.086 464.968 713.176 464.832 713.312 464.832H751.125C751.216 464.832 751.351 464.968 751.351 465.058V466.684C751.351 466.82 751.216 466.91 751.125 466.91Z" fill="#DAEDFE"/>
<path d="M121.915 137.475C129.098 137.475 135.333 132.235 136.281 125.142C136.462 123.847 136.552 122.536 136.552 121.211C136.552 105.399 123.722 92.5686 107.865 92.5686C107.232 92.5686 106.6 92.5837 105.967 92.6138C104.657 77.0276 91.5556 64.7393 75.6079 64.7393C58.8019 64.7393 45.1583 78.3829 45.1583 95.1889C45.1583 95.9419 45.1884 96.6949 45.2486 97.4478C40.4598 94.7372 34.9029 93.3367 28.9847 93.6077C13.7147 94.2854 1.11012 106.529 0.0258583 121.799C0.0258583 121.919 0.0258583 122.039 0.0258583 122.16C-0.471095 130.473 6.26037 137.475 14.573 137.475H121.915Z" fill="#DAEDFE" fill-opacity="0.75"/>
<path d="M896.479 207.772C919.113 207.772 920.378 173.663 897.744 172.533C897.111 172.503 896.494 172.488 895.891 172.488C891.825 172.488 887.94 173.121 884.281 174.295C881.254 155.863 865.216 141.768 845.925 141.768C826.137 141.768 809.828 156.45 807.343 175.56C802.645 173.302 797.404 172.037 791.848 172.037C788.775 172.037 785.749 172.443 782.902 173.166C763.069 178.271 767.226 207.772 787.691 207.772H896.479Z" fill="#DAEDFE" fill-opacity="0.75"/>
<path d="M669.806 65.9592C692.485 65.9592 693.75 31.8502 671.116 30.7659C670.484 30.7358 669.851 30.7207 669.219 30.7207C665.198 30.7207 661.313 31.3532 657.653 32.5278C654.627 14.0502 638.589 0 619.298 0C599.555 0 583.246 14.6827 580.716 33.7476C576.063 31.5339 570.777 30.269 565.265 30.269C562.148 30.269 559.166 30.6304 556.275 31.3984C536.487 36.5035 540.644 65.9592 561.109 65.9592H669.806Z" fill="#DAEDFE" fill-opacity="0.75"/>
<path d="M660.137 128.666C672.019 141.18 675.272 141.271 687.831 129.389C675.272 141.271 675.181 144.523 687.063 157.083C675.181 144.523 671.929 144.433 659.369 156.36C671.929 144.433 672.019 141.18 660.137 128.666Z" fill="#DAEDFE"/>
<path d="M225.529 31.3984C237.456 43.9578 240.709 44.0482 253.223 32.1665C240.709 44.0482 240.619 47.3009 252.501 59.8603C240.619 47.3009 237.366 47.2106 224.807 59.0923C237.366 47.2106 237.456 43.9578 225.529 31.3984Z" fill="#DAEDFE"/>
<path d="M107.842 210.753C119.724 223.312 122.977 223.403 135.536 211.521C122.977 223.403 122.886 226.655 134.768 239.215C122.886 226.655 119.634 226.565 107.074 238.447C119.634 226.565 119.724 223.312 107.842 210.753Z" fill="#DAEDFE"/>
<path d="M0.768017 178.903C12.6497 191.463 15.9025 191.553 28.4619 179.671C15.9025 191.553 15.8122 194.806 27.6938 207.365C15.8122 194.806 12.5594 194.715 0 206.642C12.5594 194.715 12.6497 191.463 0.768017 178.903Z" fill="#DAEDFE"/>
<path d="M798.832 272.691C810.759 285.251 813.967 285.341 826.526 273.459C813.967 285.341 813.876 288.594 825.803 301.153C813.876 288.594 810.669 288.504 798.109 300.385C810.669 288.504 810.759 285.251 798.832 272.691Z" fill="#DAEDFE"/>
<path d="M401.577 232.393L510.139 200.498C512.172 199.911 513.347 197.787 512.759 195.754L468.44 44.8161C467.853 42.7831 465.729 41.6537 463.696 42.241L389.334 64.0617C388.385 64.3328 387.572 64.9653 387.075 65.8237L362.499 108.788C362.002 109.691 361.866 110.73 362.137 111.769L396.834 229.773C397.421 231.806 399.544 232.981 401.577 232.393Z" fill="white"/>
<path d="M401.577 232.393L510.139 200.498C512.172 199.911 513.347 197.787 512.759 195.754L468.44 44.8161C467.853 42.7831 465.729 41.6537 463.696 42.241L389.334 64.0617C388.385 64.3328 387.572 64.9653 387.075 65.8237L362.499 108.788C362.002 109.691 361.866 110.73 362.137 111.769L396.834 229.773C397.421 231.806 399.544 232.981 401.577 232.393Z" stroke="#018AFE" stroke-width="8" stroke-linecap="round" stroke-linejoin="round"/>
<path d="M388.836 66.4111L397.872 97.2674C398.504 99.4359 397.285 101.74 395.116 102.372L362.859 111.995" fill="white"/>
<path d="M388.836 66.4111L397.872 97.2674C398.504 99.4359 397.285 101.74 395.116 102.372L362.859 111.995" stroke="#018AFE" stroke-width="8" stroke-linecap="round" stroke-linejoin="round"/>
<path d="M418.113 207.727L411.969 209.534C411.472 209.669 410.975 209.398 410.839 208.947L403.25 183.06C403.114 182.608 403.385 182.111 403.882 181.93L410.026 180.168C410.478 179.988 410.975 180.259 411.156 180.756L418.746 206.597C418.881 207.094 418.61 207.591 418.113 207.727Z" fill="#DAEDFE"/>
<path d="M449.647 198.465L443.503 200.272C443.006 200.407 442.509 200.136 442.373 199.684L437.088 181.704C436.952 181.207 437.223 180.71 437.72 180.574L443.864 178.767C444.361 178.632 444.858 178.903 444.994 179.4L450.279 197.335C450.415 197.832 450.144 198.329 449.647 198.465Z" fill="#DAEDFE"/>
<path d="M465.414 193.857L459.27 195.664C458.773 195.8 458.276 195.529 458.14 195.032L450.55 169.19C450.415 168.693 450.686 168.196 451.183 168.061L457.327 166.254C457.779 166.118 458.276 166.389 458.456 166.886L466.046 192.728C466.182 193.225 465.911 193.721 465.414 193.857Z" fill="#DAEDFE"/>
<path d="M433.88 203.119L427.736 204.926C427.239 205.061 426.742 204.79 426.607 204.293L416.713 170.546C416.577 170.094 416.848 169.597 417.3 169.461L423.489 167.654C423.941 167.474 424.438 167.79 424.574 168.242L434.513 201.989C434.648 202.486 434.377 202.983 433.88 203.119Z" fill="#DAEDFE"/>
<path d="M387.121 128.078L460.038 106.664" stroke="#DAEDFE" stroke-width="6" stroke-linecap="round" stroke-linejoin="round"/>
<path d="M390.555 139.869L463.471 118.455" stroke="#DAEDFE" stroke-width="6" stroke-linecap="round" stroke-linejoin="round"/>
<path d="M394.033 151.706L466.95 130.292" stroke="#DAEDFE" stroke-width="6" stroke-linecap="round" stroke-linejoin="round"/>
<path d="M549.669 191.643L552.379 185.905C552.922 184.821 552.379 183.511 551.205 183.104L514.882 170.048L513.301 172.939L546.777 192.546C547.816 193.179 549.172 192.727 549.669 191.643Z" fill="#018AFE"/>
<path d="M476.166 134.222C491.165 127.898 508.423 134.945 514.748 149.944C521.073 164.898 514.025 182.156 499.071 188.481C484.072 194.806 466.815 187.803 460.49 172.804C454.165 157.805 461.213 140.547 476.166 134.222Z" fill="#DAEDFE"/>
<path d="M478.56 139.87C490.442 134.9 504.085 140.457 509.1 152.294C514.115 164.175 508.513 177.819 496.676 182.834C484.795 187.848 471.151 182.291 466.136 170.41C461.167 158.573 466.724 144.884 478.56 139.87Z" fill="white"/>
<path d="M476.166 134.222C491.165 127.898 508.423 134.945 514.748 149.944C521.073 164.898 514.025 182.156 499.071 188.481C484.072 194.806 466.815 187.803 460.49 172.804C454.165 157.805 461.213 140.547 476.166 134.222Z" stroke="#018AFE" stroke-width="8" stroke-linecap="round" stroke-linejoin="round"/>
<path d="M487.776 150.079L487.596 164.446" stroke="#018AFE" stroke-width="8" stroke-linecap="round" stroke-linejoin="round"/>
<path d="M487.506 172.668C487.506 172.638 487.491 172.623 487.461 172.623C487.461 172.623 487.461 172.638 487.461 172.668C487.491 172.668 487.506 172.668 487.506 172.668Z" stroke="#018AFE" stroke-width="8" stroke-linecap="round" stroke-linejoin="round"/>
<path d="M393.294 502.645C375.675 480.629 365.676 447.679 363.296 403.797C360.947 360.155 367.332 326.438 382.451 302.644C397.541 278.821 420.581 266.066 451.573 264.379C482.565 262.692 506.855 272.872 524.445 294.919C542.064 316.966 552.048 349.795 554.397 393.406C556.777 437.048 550.407 470.84 535.287 494.785C520.198 518.699 497.157 531.499 466.166 533.186C435.174 534.872 410.883 524.692 393.294 502.645Z" fill="white"/>
<path d="M393.294 502.645C375.675 480.629 365.676 447.679 363.296 403.797C360.947 360.155 367.332 326.438 382.451 302.644C397.541 278.821 420.581 266.066 451.573 264.379C482.565 262.692 506.855 272.872 524.445 294.919C542.064 316.966 552.048 349.795 554.397 393.406C556.777 437.048 550.407 470.84 535.287 494.785C520.198 518.699 497.157 531.499 466.166 533.186C435.174 534.872 410.883 524.692 393.294 502.645Z" stroke="#018AFE" stroke-width="10" stroke-miterlimit="10"/>
<path d="M499.687 470.389C506.524 454.486 509.023 429.684 507.186 395.981C505.349 362.038 500.169 337.642 491.645 322.794C483.152 307.975 470.472 301.018 453.606 301.922C436.739 302.855 424.888 311.213 418.051 326.995C411.214 342.777 408.699 367.519 410.506 401.222C412.343 434.924 417.524 459.32 426.047 474.41C434.571 489.469 447.266 496.547 464.132 495.643C480.968 494.74 492.82 486.321 499.687 470.389Z" fill="#DAEDFE"/>
<path d="M499.687 470.389C506.524 454.486 509.023 429.684 507.186 395.981C505.349 362.038 500.169 337.642 491.645 322.794C483.152 307.975 470.472 301.018 453.606 301.922C436.739 302.855 424.888 311.213 418.051 326.995C411.214 342.777 408.699 367.519 410.506 401.222C412.343 434.924 417.524 459.32 426.047 474.41C434.571 489.469 447.266 496.547 464.132 495.643C480.968 494.739 492.82 486.321 499.687 470.389Z" stroke="#018AFE" stroke-width="10" stroke-miterlimit="10"/>
<path fill-rule="evenodd" clip-rule="evenodd" d="M798.807 396.433L769.848 402.261L781.459 460.178L719.475 472.647L707.819 414.73L594.198 437.544L585.162 392.593L654.6 215.226L729.233 200.227L759.096 348.77L788.055 342.942L798.807 396.433ZM680.893 280.688L648.049 371.088L697.067 361.239L680.893 280.688Z" fill="#018AFE"/>
<path fill-rule="evenodd" clip-rule="evenodd" d="M320.829 426.431L291.689 421.552L281.976 479.876L219.586 469.44L229.299 411.161L115 392.096L122.545 346.919L250.488 205.829L325.573 218.343L300.68 367.791L329.819 372.625L320.829 426.431ZM251.752 276.306L188.956 349.178L238.244 357.355L251.752 276.306Z" fill="#018AFE"/>
<path d="M111.637 469.711H73.8235C73.688 469.711 73.5977 469.62 73.5977 469.485V467.904C73.5977 467.768 73.688 467.678 73.8235 467.678H111.637C111.773 467.678 111.863 467.768 111.863 467.904V469.485C111.863 469.62 111.773 469.711 111.637 469.711Z" fill="#DAEDFE"/>
<path d="M215.454 469.711H177.64C177.55 469.711 177.414 469.62 177.414 469.485V467.904C177.414 467.768 177.55 467.678 177.64 467.678H215.454C215.589 467.678 215.679 467.768 215.679 467.904V469.485C215.679 469.62 215.589 469.711 215.454 469.711Z" fill="#DAEDFE"/>
<path d="M914.26 540H0V404H914.26V540Z" fill="white"/>
<path d="M309.967 445.315H272.154C272.063 445.315 271.928 445.225 271.928 445.089V443.508C271.928 443.373 272.063 443.282 272.154 443.282H309.967C310.103 443.282 310.193 443.373 310.193 443.508V445.089C310.193 445.225 310.103 445.315 309.967 445.315Z" fill="#DAEDFE"/>
<path d="M363.727 472.286H325.913C325.778 472.286 325.688 472.196 325.688 472.06V470.479C325.688 470.343 325.778 470.253 325.913 470.253H363.727C363.863 470.253 363.953 470.343 363.953 470.479V472.06C363.953 472.196 363.863 472.286 363.727 472.286Z" fill="#DAEDFE"/>
<path d="M496.37 472.286H458.556C458.42 472.286 458.33 472.196 458.33 472.06V470.479C458.33 470.343 458.42 470.253 458.556 470.253H496.37C496.505 470.253 496.595 470.343 496.595 470.479V472.06C496.595 472.196 496.505 472.286 496.37 472.286Z" fill="#DAEDFE"/>
<path d="M644.733 470.75H606.919C606.784 470.75 606.693 470.659 606.693 470.524V468.943C606.693 468.807 606.784 468.717 606.919 468.717H644.733C644.868 468.717 644.959 468.807 644.959 468.943V470.524C644.959 470.659 644.868 470.75 644.733 470.75Z" fill="#DAEDFE"/>
<path d="M173.395 441.385H135.581C135.446 441.385 135.355 441.249 135.355 441.159V439.533C135.355 439.442 135.446 439.307 135.581 439.307H173.395C173.531 439.307 173.621 439.442 173.621 439.533V441.159C173.621 441.249 173.531 441.385 173.395 441.385Z" fill="#DAEDFE"/>
<path d="M437.458 440.391H399.644C399.508 440.391 399.418 440.255 399.418 440.165V438.538C399.418 438.403 399.508 438.312 399.644 438.312H437.458C437.548 438.312 437.683 438.403 437.683 438.538V440.165C437.683 440.255 437.548 440.391 437.458 440.391Z" fill="#DAEDFE"/>
<path d="M706.489 440.21H668.675C668.54 440.21 668.449 440.119 668.449 439.984V438.403C668.449 438.267 668.54 438.177 668.675 438.177H706.489C706.624 438.177 706.715 438.267 706.715 438.403V439.984C706.715 440.119 706.624 440.21 706.489 440.21Z" fill="#DAEDFE"/>
<path d="M574.075 430.633H536.261C536.126 430.633 536.035 430.542 536.035 430.407V428.825C536.035 428.69 536.126 428.6 536.261 428.6H574.075C574.165 428.6 574.301 428.69 574.301 428.825V430.407C574.301 430.542 574.165 430.633 574.075 430.633Z" fill="#DAEDFE"/>
</svg>
