<svg width="36" height="48" viewBox="0 0 36 48" fill="none" xmlns="http://www.w3.org/2000/svg">
<path d="M13.5369 0.521484C10.9437 0.521484 8.83398 2.63116 8.83398 5.22443C8.83398 7.8177 10.9438 9.92738 13.5369 9.92738C16.1302 9.92738 18.2399 7.8177 18.2399 5.22443C18.2399 2.63116 16.1302 0.521484 13.5369 0.521484ZM13.5369 8.55033C11.703 8.55033 10.211 7.05835 10.211 5.22443C10.211 3.39051 11.7031 1.89853 13.5369 1.89853C15.3709 1.89853 16.8628 3.3906 16.8628 5.22443C16.8628 7.05826 15.3709 8.55033 13.5369 8.55033Z" fill="white"/>
<path d="M31.1684 29.1871C30.8968 28.9211 30.4609 28.9251 30.1947 29.1966L24.4156 35.0905L22.3748 32.9552C22.112 32.6801 21.6762 32.6703 21.4013 32.9331C21.1264 33.1959 21.1165 33.6316 21.3792 33.9066L23.9115 36.5561C24.1801 36.8373 24.6285 36.8402 24.9009 36.5624L31.1779 30.1609C31.4441 29.8891 31.4398 29.4533 31.1684 29.1871Z" fill="white"/>
<path d="M34.9667 33.7867C34.594 33.7128 34.2313 33.9548 34.1572 34.3279C33.3677 38.3002 30.5647 41.6942 26.8418 43.1857C26.4888 43.3271 26.3174 43.7279 26.4587 44.0809C26.6001 44.434 27.001 44.6054 27.3539 44.464C31.64 42.7469 34.6451 38.9376 35.5077 34.5963C35.582 34.2232 35.3395 33.8608 34.9667 33.7867Z" fill="white"/>
<path d="M33.785 23.1768C31.9431 24.2174 30.2059 24.2521 28.6211 23.28C27.3613 22.5074 26.6553 21.3756 26.6271 21.3299C26.3951 20.9501 25.9989 20.7168 25.5577 20.6955C24.2767 17.1091 22.1389 14.6179 20.5284 13.1347C19.5013 12.1888 18.1681 11.668 16.7743 11.668C16.1049 11.668 10.9509 11.668 10.2992 11.668C8.81121 11.668 7.39487 12.2271 6.31121 13.2423C4.07999 15.3327 0.333477 19.8994 0.311537 26.9962C0.306856 28.4843 1.48828 29.7275 2.94501 29.7676C4.46673 29.8121 5.73096 28.5909 5.73096 27.0589C5.73096 24.3955 6.47901 21.8883 7.9105 19.7076V45.1331C7.9105 46.4503 8.98214 47.522 10.2993 47.522H11.8367C12.5013 47.522 13.1035 47.2491 13.5369 46.8095C13.9704 47.2491 14.5725 47.522 15.2372 47.522H16.7745C18.0917 47.522 19.1633 46.4503 19.1633 45.1331V41.5034C20.437 42.7829 21.9535 43.7925 23.6292 44.4637C23.9824 44.6052 24.3831 44.4335 24.5244 44.0807C24.6658 43.7277 24.4943 43.3269 24.1413 43.1855C19.7084 41.4095 16.5902 37.0066 16.5902 31.9196V24.4146C19.3777 25.9585 22.0766 25.5819 24.2815 23.5244C24.7873 23.0597 25.1995 22.5679 25.4781 22.131C25.4824 22.1244 25.4881 22.116 25.4918 22.1102C25.6896 22.4156 26.5156 23.6039 27.9016 24.4539C29.2953 25.3089 31.5486 25.9907 34.3936 24.4145V31.2489C34.3936 31.6292 34.7018 31.9374 35.0821 31.9374C35.4623 31.9374 35.7705 31.6292 35.7705 31.2489V24.3355C35.7703 23.3178 34.6726 22.6757 33.785 23.1768ZM14.7474 13.045L13.9229 14.0243C13.7211 14.264 13.3526 14.264 13.1506 14.0243L12.3261 13.045H14.7474ZM19.1632 23.9217V19.8857C19.9564 21.1312 20.5249 22.4736 20.8614 23.898C20.3095 24.019 19.7444 24.0265 19.1632 23.9217ZM22.1556 23.3924C21.6026 21.1825 20.5422 19.1574 18.9962 17.362C18.5799 16.8786 17.7858 17.1757 17.7858 17.8113V23.4769C17.4892 23.3419 17.1173 23.1353 17.1071 23.1305C16.2323 22.7188 15.2126 23.3559 15.2126 24.3356V24.3593V31.9198C15.2126 34.802 16.1038 37.5585 17.7858 39.8848V45.1333H17.7862C17.7862 45.6912 17.3324 46.1451 16.7744 46.1451H15.2371C14.6792 46.1451 14.2253 45.6913 14.2253 45.1333V30.9837C14.2253 30.6034 13.9171 30.2952 13.5368 30.2952C13.1566 30.2952 12.8484 30.6034 12.8484 30.9837V45.1332C12.8484 45.6911 12.3945 46.145 11.8366 46.145H10.2992C9.74139 46.145 9.28745 45.6913 9.28745 45.1332V17.676C9.28745 17.0427 8.50066 16.7466 8.08262 17.2205C5.64311 19.9851 4.35373 23.3872 4.35373 27.059C4.35373 27.8003 3.74842 28.4095 2.98283 28.3912C2.26681 28.3715 1.68611 27.7477 1.68849 27.0006C1.70887 20.4208 5.1833 16.186 7.25268 14.2474C8.08023 13.4721 9.16206 13.045 10.2991 13.045H10.526L12.0972 14.9111C12.8493 15.8046 14.225 15.8034 14.9762 14.9111L16.5473 13.045H16.7741C17.8215 13.045 18.8233 13.4366 19.5954 14.1476C21.1206 15.5523 23.156 17.9297 24.3335 21.3641C23.8092 22.1553 23.0095 22.9104 22.1556 23.3924Z" fill="white"/>
</svg>
