<svg width="13" height="16" viewBox="0 0 13 16" fill="none" xmlns="http://www.w3.org/2000/svg">
<path d="M4.50237 0C3.61956 0 2.90137 0.718189 2.90137 1.601C2.90137 2.48382 3.61959 3.20201 4.50237 3.20201C5.38518 3.20201 6.10337 2.48382 6.10337 1.601C6.10337 0.718189 5.38518 0 4.50237 0ZM4.50237 2.73322C3.87806 2.73322 3.37015 2.22532 3.37015 1.601C3.37015 0.976689 3.87809 0.468782 4.50237 0.468782C5.12668 0.468782 5.63459 0.976721 5.63459 1.601C5.63459 2.22529 5.12668 2.73322 4.50237 2.73322Z" fill="#018AFE"/>
<path d="M10.5048 9.75854C10.4124 9.66798 10.264 9.66935 10.1734 9.76179L8.20602 11.7682L7.51126 11.0413C7.42183 10.9477 7.27345 10.9443 7.17986 11.0338C7.0863 11.1232 7.08292 11.2716 7.17236 11.3652L8.03442 12.2671C8.12586 12.3629 8.27848 12.3639 8.37124 12.2693L10.5081 10.09C10.5987 9.99754 10.5972 9.84916 10.5048 9.75854Z" fill="#018AFE"/>
<path d="M11.798 11.3242C11.6711 11.299 11.5476 11.3814 11.5224 11.5084C11.2536 12.8607 10.2994 14.0161 9.03204 14.5238C8.91188 14.5719 8.85351 14.7084 8.90163 14.8286C8.94976 14.9488 9.08623 15.0071 9.20638 14.959C10.6655 14.3744 11.6885 13.0777 11.9821 11.5998C12.0074 11.4728 11.9249 11.3494 11.798 11.3242Z" fill="#018AFE"/>
<path d="M11.3952 7.71229C10.7682 8.06651 10.1768 8.07832 9.6373 7.74741C9.20843 7.48438 8.96808 7.0991 8.95849 7.08354C8.87952 6.95425 8.74465 6.87482 8.59443 6.86757C8.15836 5.64666 7.43058 4.79859 6.88233 4.29369C6.53267 3.97169 6.07883 3.79437 5.60436 3.79437C5.37648 3.79437 3.62192 3.79437 3.40007 3.79437C2.89351 3.79437 2.41135 3.98472 2.04245 4.33031C1.28288 5.04194 0.00747348 6.59657 4.72037e-06 9.01251C-0.00158903 9.51907 0.400599 9.94229 0.896507 9.95595C1.41454 9.9711 1.84491 9.55538 1.84491 9.03385C1.84491 8.12716 2.09957 7.27363 2.58688 6.53125V15.1868C2.58688 15.6352 2.9517 16 3.4001 16H3.92345C4.1497 16 4.3547 15.9071 4.50226 15.7575C4.64983 15.9071 4.85479 16 5.08108 16H5.60442C6.05283 16 6.41764 15.6352 6.41764 15.1868V13.9511C6.85124 14.3867 7.36749 14.7304 7.93793 14.9589C8.05818 15.007 8.19458 14.9486 8.24268 14.8285C8.29083 14.7083 8.23243 14.5719 8.11227 14.5237C6.60321 13.9191 5.54167 12.4203 5.54167 10.6885V8.13366C6.49061 8.65923 7.40939 8.53104 8.15999 7.8306C8.33218 7.67241 8.47249 7.505 8.56733 7.35625C8.5688 7.354 8.57074 7.35116 8.57202 7.34916C8.63933 7.45313 8.92055 7.85766 9.39237 8.14704C9.86681 8.4381 10.6339 8.67019 11.6024 8.13363V10.4602C11.6024 10.5897 11.7073 10.6946 11.8368 10.6946C11.9662 10.6946 12.0712 10.5897 12.0712 10.4602V8.10672C12.0711 7.76029 11.6974 7.54169 11.3952 7.71229ZM4.91433 4.26315L4.63367 4.59653C4.56495 4.67812 4.43951 4.67812 4.37076 4.59653L4.09008 4.26315H4.91433ZM6.41758 7.96585V6.59191C6.68761 7.01591 6.88114 7.47288 6.99571 7.95779C6.80783 7.99897 6.61545 8.00154 6.41758 7.96585ZM7.43627 7.78566C7.24802 7.03338 6.88705 6.34397 6.36074 5.73278C6.21902 5.56822 5.9487 5.66935 5.9487 5.88572V7.81444C5.84773 7.76847 5.72111 7.69813 5.71764 7.6965C5.41983 7.55635 5.0727 7.77325 5.0727 8.10676V8.11482V10.6886C5.0727 11.6698 5.37611 12.6082 5.9487 13.4001V15.1868H5.94883C5.94883 15.3767 5.79433 15.5313 5.60439 15.5313H5.08105C4.89114 15.5313 4.73661 15.3768 4.73661 15.1868V10.3699C4.73661 10.2405 4.63167 10.1356 4.50223 10.1356C4.37279 10.1356 4.26786 10.2405 4.26786 10.3699V15.1868C4.26786 15.3767 4.11336 15.5312 3.92342 15.5312H3.40007C3.21017 15.5312 3.05564 15.3768 3.05564 15.1868V5.83966C3.05564 5.62406 2.78779 5.52328 2.64548 5.68459C1.81501 6.62572 1.37607 7.78391 1.37607 9.03388C1.37607 9.28623 1.17001 9.4936 0.909381 9.48738C0.665631 9.48067 0.467943 9.26832 0.468756 9.01401C0.475693 6.77407 1.65848 5.33244 2.36295 4.67247C2.64467 4.40853 3.01295 4.26315 3.40004 4.26315H3.47726L4.01214 4.89841C4.26817 5.20259 4.73651 5.20219 4.99223 4.89841L5.52708 4.26315H5.6043C5.96083 4.26315 6.30189 4.39647 6.56474 4.6385C7.08396 5.11669 7.77683 5.92603 8.17771 7.09519C7.99921 7.36454 7.72699 7.62157 7.43627 7.78566Z" fill="#018AFE"/>
</svg>
