<svg width="39" height="48" viewBox="0 0 39 48" fill="none" xmlns="http://www.w3.org/2000/svg">
<path d="M25.7812 37.9766C25.5865 37.9766 25.3997 37.8992 25.262 37.7615C25.1242 37.6237 25.0469 37.437 25.0469 37.2422V18.1484C25.0469 17.9537 25.1242 17.7669 25.262 17.6292C25.3997 17.4914 25.5865 17.4141 25.7812 17.4141C25.976 17.4141 26.1628 17.4914 26.3005 17.6292C26.4383 17.7669 26.5156 17.9537 26.5156 18.1484V37.2422C26.5156 37.437 26.4383 37.6237 26.3005 37.7615C26.1628 37.8992 25.976 37.9766 25.7812 37.9766Z" fill="white"/>
<path d="M34.5928 44.5859H20.6396C20.4449 44.5859 20.2581 44.5086 20.1204 44.3708C19.9826 44.2331 19.9053 44.0463 19.9053 43.8516C19.9053 43.6568 19.9826 43.47 20.1204 43.3323C20.2581 43.1946 20.4449 43.1172 20.6396 43.1172H34.5928C35.1771 43.1172 35.7375 42.8851 36.1506 42.4719C36.5638 42.0587 36.7959 41.4984 36.7959 40.9141V19.6172C36.7959 19.4224 36.8733 19.2356 37.011 19.0979C37.1487 18.9602 37.3355 18.8828 37.5303 18.8828C37.725 18.8828 37.9118 18.9602 38.0496 19.0979C38.1873 19.2356 38.2646 19.4224 38.2646 19.6172V40.9141C38.2635 41.8875 37.8763 42.8208 37.1879 43.5092C36.4995 44.1975 35.5663 44.5848 34.5928 44.5859Z" fill="white"/>
<path d="M37.5313 17.4141C37.3365 17.4141 37.1497 17.3367 37.012 17.199C36.8742 17.0612 36.7969 16.8745 36.7969 16.6797V14.4766C36.7969 13.8923 36.5648 13.3319 36.1516 12.9187C35.7384 12.5056 35.1781 12.2734 34.5938 12.2734H16.9688C16.3844 12.2734 15.8241 12.5056 15.4109 12.9187C14.9977 13.3319 14.7656 13.8923 14.7656 14.4766V15.9453C14.7656 16.1401 14.6883 16.3269 14.5505 16.4646C14.4128 16.6023 14.226 16.6797 14.0313 16.6797C13.8365 16.6797 13.6497 16.6023 13.512 16.4646C13.3742 16.3269 13.2969 16.1401 13.2969 15.9453V14.4766C13.298 13.5031 13.6853 12.5698 14.3736 11.8814C15.062 11.1931 15.9953 10.8059 16.9688 10.8047H34.5938C35.5672 10.8059 36.5005 11.1931 37.1889 11.8814C37.8772 12.5698 38.2645 13.5031 38.2656 14.4766V16.6797C38.2656 16.8745 38.1883 17.0612 38.0505 17.199C37.9128 17.3367 37.726 17.4141 37.5313 17.4141Z" fill="white"/>
<path d="M31.6553 37.9766C31.4605 37.9766 31.2737 37.8992 31.136 37.7615C30.9983 37.6237 30.9209 37.437 30.9209 37.2422V18.1484C30.9209 17.9537 30.9983 17.7669 31.136 17.6292C31.2737 17.4914 31.4605 17.4141 31.6553 17.4141C31.85 17.4141 32.0368 17.4914 32.1746 17.6292C32.3123 17.7669 32.3896 17.9537 32.3896 18.1484V37.2422C32.3896 37.437 32.3123 37.6237 32.1746 37.7615C32.0368 37.8992 31.85 37.9766 31.6553 37.9766Z" fill="white"/>
<path d="M19.9053 20.3516C19.7105 20.3516 19.5237 20.2742 19.386 20.1365C19.2483 19.9987 19.1709 19.812 19.1709 19.6172V18.1484C19.1709 17.9537 19.2483 17.7669 19.386 17.6292C19.5237 17.4914 19.7105 17.4141 19.9053 17.4141C20.1 17.4141 20.2868 17.4914 20.4246 17.6292C20.5623 17.7669 20.6396 17.9537 20.6396 18.1484V19.6172C20.6396 19.812 20.5623 19.9987 20.4246 20.1365C20.2868 20.2742 20.1 20.3516 19.9053 20.3516Z" fill="white"/>
<path d="M19.9062 47.5234C19.3219 47.5234 18.7616 47.2913 18.3484 46.8782C17.9352 46.465 17.7031 45.9046 17.7031 45.3203V43.8516C17.7031 43.6568 17.7805 43.47 17.9182 43.3323C18.0559 43.1946 18.2427 43.1172 18.4375 43.1172H21.375C21.5698 43.1172 21.7566 43.1946 21.8943 43.3323C22.032 43.47 22.1094 43.6568 22.1094 43.8516V45.3203C22.1094 45.9046 21.8773 46.465 21.4641 46.8782C21.0509 47.2913 20.4906 47.5234 19.9062 47.5234ZM19.1719 44.5859V45.3203C19.1719 45.5151 19.2492 45.7019 19.387 45.8396C19.5247 45.9773 19.7115 46.0547 19.9062 46.0547C20.101 46.0547 20.2878 45.9773 20.4255 45.8396C20.5633 45.7019 20.6406 45.5151 20.6406 45.3203V44.5859H19.1719Z" fill="white"/>
<path d="M31.6562 47.5234C31.0719 47.5234 30.5116 47.2913 30.0984 46.8782C29.6852 46.465 29.4531 45.9046 29.4531 45.3203V43.8516C29.4531 43.6568 29.5305 43.47 29.6682 43.3323C29.8059 43.1946 29.9927 43.1172 30.1875 43.1172H33.125C33.3198 43.1172 33.5066 43.1946 33.6443 43.3323C33.782 43.47 33.8594 43.6568 33.8594 43.8516V45.3203C33.8594 45.9046 33.6273 46.465 33.2141 46.8782C32.8009 47.2913 32.2406 47.5234 31.6562 47.5234ZM30.9219 44.5859V45.3203C30.9219 45.5151 30.9992 45.7019 31.137 45.8396C31.2747 45.9773 31.4615 46.0547 31.6562 46.0547C31.851 46.0547 32.0378 45.9773 32.1755 45.8396C32.3133 45.7019 32.3906 45.5151 32.3906 45.3203V44.5859H30.9219Z" fill="white"/>
<path d="M30.9209 12.2734H20.6396C20.4449 12.2734 20.2581 12.1961 20.1204 12.0583C19.9826 11.9206 19.9053 11.7338 19.9053 11.5391V1.25781C19.9053 1.06304 19.9826 0.876253 20.1204 0.738531C20.2581 0.600809 20.4449 0.523438 20.6396 0.523438H30.9209C31.1157 0.523438 31.3025 0.600809 31.4402 0.738531C31.5779 0.876253 31.6553 1.06304 31.6553 1.25781V11.5391C31.6553 11.7338 31.5779 11.9206 31.4402 12.0583C31.3025 12.1961 31.1157 12.2734 30.9209 12.2734ZM21.374 10.8047H30.1865V1.99219H21.374V10.8047Z" fill="white"/>
<path d="M33.8594 10.0703H33.125C32.9302 10.0703 32.7434 9.99294 32.6057 9.85522C32.468 9.7175 32.3906 9.53071 32.3906 9.33594C32.3906 9.14117 32.468 8.95438 32.6057 8.81666C32.7434 8.67893 32.9302 8.60156 33.125 8.60156H33.8594C34.0541 8.60156 34.2409 8.67893 34.3787 8.81666C34.5164 8.95438 34.5938 9.14117 34.5938 9.33594C34.5938 9.53071 34.5164 9.7175 34.3787 9.85522C34.2409 9.99294 34.0541 10.0703 33.8594 10.0703Z" fill="white"/>
<path d="M18.4375 10.0703H17.7031C17.5084 10.0703 17.3216 9.99294 17.1838 9.85522C17.0461 9.7175 16.9688 9.53071 16.9688 9.33594C16.9688 9.14117 17.0461 8.95438 17.1838 8.81666C17.3216 8.67893 17.5084 8.60156 17.7031 8.60156H18.4375C18.6323 8.60156 18.8191 8.67893 18.9568 8.81666C19.0945 8.95438 19.1719 9.14117 19.1719 9.33594C19.1719 9.53071 19.0945 9.7175 18.9568 9.85522C18.8191 9.99294 18.6323 10.0703 18.4375 10.0703Z" fill="white"/>
<path d="M11.8277 44.5868C11.7306 44.5871 11.6345 44.5678 11.545 44.5303C6.3412 42.3646 2.66051 36.8502 0.89801 28.5833C0.874118 28.4876 0.869737 28.3881 0.885128 28.2907C0.90052 28.1933 0.93537 28.1 0.987598 28.0164C1.03983 27.9328 1.10836 27.8605 1.18912 27.8039C1.26988 27.7473 1.36121 27.7076 1.45766 27.6871C1.55411 27.6665 1.6537 27.6657 1.7505 27.6845C1.8473 27.7033 1.93932 27.7414 2.02108 27.7965C2.10283 27.8516 2.17265 27.9226 2.22636 28.0053C2.28008 28.088 2.31658 28.1807 2.33371 28.2778C3.47199 33.6123 6.04084 40.4618 11.8277 43.0527C19.0775 39.8134 21.3401 29.9265 22.0436 23.8473C18.4722 22.9306 15.0373 21.5469 11.8277 19.7319C8.61814 21.5456 5.18351 22.9283 1.61256 23.8444C1.67057 24.3416 1.7374 24.8556 1.81524 25.3866C1.83874 25.5769 1.78687 25.7688 1.67072 25.9214C1.55457 26.074 1.38335 26.175 1.19365 26.203C1.00396 26.2311 0.810833 26.1838 0.655551 26.0713C0.500269 25.9588 0.395147 25.79 0.362651 25.601C0.247354 24.8248 0.155557 24.0757 0.0821196 23.367C0.0635992 23.1902 0.109892 23.0126 0.212402 22.8673C0.314912 22.7219 0.466674 22.6187 0.63951 22.5768C4.43533 21.6656 8.07883 20.2083 11.4561 18.2506C11.569 18.185 11.6972 18.1504 11.8277 18.1504C11.9583 18.1504 12.0865 18.185 12.1993 18.2506C15.5765 20.2086 19.22 21.6659 23.0159 22.5768C23.1888 22.6186 23.3406 22.7216 23.4432 22.8668C23.5459 23.012 23.5923 23.1894 23.574 23.3663C22.9131 29.7664 20.5484 41.0273 12.106 44.5317C12.0177 44.568 11.9232 44.5867 11.8277 44.5868Z" fill="white"/>
<path d="M10.3591 35.0398C10.1644 35.0398 9.97763 34.9624 9.83994 34.8246L6.90244 31.8871C6.76866 31.7486 6.69464 31.5631 6.69632 31.3706C6.69799 31.178 6.77522 30.9938 6.91138 30.8577C7.04754 30.7215 7.23173 30.6443 7.42428 30.6426C7.61683 30.6409 7.80234 30.715 7.94084 30.8487L10.3591 33.267L15.7149 27.9112C15.8534 27.7775 16.0389 27.7034 16.2315 27.7051C16.424 27.7068 16.6082 27.784 16.7444 27.9202C16.8806 28.0563 16.9578 28.2405 16.9595 28.4331C16.9611 28.6256 16.8871 28.8111 16.7533 28.9496L10.8783 34.8246C10.7407 34.9624 10.5539 35.0398 10.3591 35.0398Z" fill="white"/>
</svg>
