<svg width="16" height="16" viewBox="0 0 16 16" fill="none" xmlns="http://www.w3.org/2000/svg">
<path d="M12.9999 14H1.66665C0.747992 14 0 13.252 0 12.3333V11.6667C0 10.38 1.04666 9.33337 2.33331 9.33337H9.23323C9.41723 9.33337 9.56656 9.48271 9.56656 9.6667C9.56656 9.8507 9.41723 10 9.23323 10H2.33331C1.41465 10 0.66666 10.748 0.66666 11.6667V12.3333C0.66666 12.8847 1.11532 13.3333 1.66665 13.3333H12.9999C13.5512 13.3333 13.9999 12.8847 13.9999 12.3333V11.6667C13.9999 11.2494 13.8445 10.8514 13.5619 10.546C13.4365 10.4107 13.4452 10.2 13.5805 10.0747C13.7145 9.94937 13.9265 9.95737 14.0518 10.0934C14.4478 10.5227 14.6665 11.0814 14.6665 11.6667V12.3333C14.6665 13.252 13.9185 14 12.9999 14Z" fill="#018AFE"/>
<path d="M1.33332 16C0.597993 16 0 15.402 0 14.6667V12.3334C0 12.1494 0.149332 12.0001 0.33333 12.0001C0.517328 12.0001 0.666659 12.1494 0.666659 12.3334V14.6667C0.666659 15.034 0.96599 15.3334 1.33332 15.3334C1.70065 15.3334 1.99998 15.034 1.99998 14.6667V13.6667C1.99998 13.4827 2.14931 13.3334 2.33331 13.3334C2.51731 13.3334 2.66664 13.4827 2.66664 13.6667V14.6667C2.66664 15.402 2.06864 16 1.33332 16Z" fill="#018AFE"/>
<path d="M13.3333 16C12.598 16 12 15.402 12 14.6667V13.6667C12 13.4827 12.1493 13.3334 12.3333 13.3334C12.5173 13.3334 12.6667 13.4827 12.6667 13.6667V14.6667C12.6667 15.034 12.966 15.3334 13.3333 15.3334C13.7006 15.3334 14 15.034 14 14.6667V12.3334C14 12.1494 14.1493 12.0001 14.3333 12.0001C14.5173 12.0001 14.6666 12.1494 14.6666 12.3334V14.6667C14.6666 15.402 14.0686 16 13.3333 16Z" fill="#018AFE"/>
<path d="M1.66702 10.0001C1.62435 10.0001 1.58102 9.99205 1.53902 9.97405C1.36902 9.90339 1.28902 9.70805 1.35969 9.53806L2.68634 6.35809C2.947 5.7361 3.549 5.33344 4.22032 5.33344H6.4803C6.6643 5.33344 6.81363 5.48277 6.81363 5.66676C6.81363 5.85076 6.66496 6.00009 6.4803 6.00009H4.22032C3.82433 6.00009 3.45566 6.24743 3.30167 6.61542L1.97501 9.79539C1.92101 9.92272 1.79701 10.0001 1.66702 10.0001Z" fill="#018AFE"/>
<path d="M4.33331 12H2.33333C2.14933 12 2 11.8507 2 11.6667C2 11.4827 2.14933 11.3334 2.33333 11.3334H4.33331C4.51731 11.3334 4.66664 11.4827 4.66664 11.6667C4.66664 11.8507 4.51731 12 4.33331 12Z" fill="#018AFE"/>
<path d="M12.3333 12H10.3333C10.1493 12 10 11.8507 10 11.6667C10 11.4827 10.1493 11.3334 10.3333 11.3334H12.3333C12.5173 11.3334 12.6666 11.4827 12.6666 11.6667C12.6666 11.8507 12.5173 12 12.3333 12Z" fill="#018AFE"/>
<path d="M12 9.3334C11.956 9.3334 11.912 9.32473 11.8706 9.30673C11.712 9.24073 8 7.63608 8 4.35745V1.57148C8 1.42882 8.09133 1.30149 8.22666 1.25549L11.8933 0.0174998C11.9626 -0.00583327 12.0373 -0.00583327 12.1066 0.0174998L15.7732 1.25549C15.9086 1.30149 15.9999 1.42882 15.9999 1.57148V4.35745C15.9999 7.63608 12.288 9.24073 12.1293 9.3074C12.088 9.32473 12.044 9.3334 12 9.3334ZM8.66666 1.81081V4.35745C8.66666 6.88076 11.37 8.32941 12 8.63341C12.6293 8.32874 15.3333 6.87476 15.3333 4.35745V1.81081L12 0.685493L8.66666 1.81081Z" fill="#018AFE"/>
<path d="M11.6668 6.00007C11.6608 6.00007 11.6541 6.00007 11.6481 5.99941C11.5535 5.99407 11.4655 5.94874 11.4061 5.87474L10.0728 4.20809C9.95814 4.06409 9.98147 3.85476 10.1248 3.73943C10.2688 3.6241 10.4781 3.6481 10.5935 3.79143L11.6941 5.16742L13.7641 3.09744C13.8941 2.96744 14.1054 2.96744 14.2354 3.09744C14.3654 3.22744 14.3654 3.43877 14.2354 3.56877L11.9021 5.90207C11.8401 5.96541 11.7548 6.00007 11.6668 6.00007Z" fill="#018AFE"/>
</svg>
