<svg width="36" height="36" viewBox="0 0 36 36" fill="none" xmlns="http://www.w3.org/2000/svg">
<path d="M7.29526 23.9304C10.8595 28.1749 15.15 31.5168 20.0471 33.8815C21.9116 34.7617 24.405 35.806 27.183 35.9851C27.3553 35.9925 27.52 36 27.6922 36C29.5567 36 31.0542 35.3585 32.2748 34.0381C32.2822 34.0306 32.2973 34.0158 32.3047 34.0008C32.739 33.4787 33.2332 33.0087 33.7498 32.5089C34.1018 32.1732 34.4612 31.8227 34.8057 31.4646C36.4006 29.8086 36.4006 27.705 34.7907 26.1011L30.2905 21.6179C29.5267 20.8271 28.6132 20.4094 27.6547 20.4094C26.6963 20.4094 25.7753 20.8272 24.989 21.6104L22.3084 24.2809C22.0613 24.1392 21.8067 24.0124 21.5671 23.8931C21.2676 23.7439 20.9906 23.6021 20.7434 23.4455C18.3024 21.9014 16.086 19.8873 13.967 17.2988C12.8962 15.9486 12.1773 14.8148 11.6756 13.6586C12.3795 13.0244 13.0384 12.3605 13.6749 11.7116C13.8995 11.4803 14.1317 11.249 14.3638 11.0178C15.1725 10.2122 15.6068 9.27976 15.6068 8.33239C15.6068 7.385 15.18 6.45255 14.3638 5.64692L12.1324 3.42395C11.8703 3.16287 11.6232 2.90924 11.3686 2.64815C10.8744 2.1409 10.3578 1.61873 9.84859 1.14877C9.07738 0.395358 8.17134 0 7.21286 0C6.26191 0 5.34839 0.395358 4.54719 1.15624L1.74672 3.94613C0.728372 4.96063 0.151808 6.19146 0.0320024 7.61625C-0.110267 9.39912 0.219202 11.2939 1.07282 13.5839C2.38319 17.1272 4.35999 20.4169 7.29526 23.9304ZM1.85904 7.77287C1.9489 6.78077 2.33078 5.95275 3.04962 5.23663L5.8351 2.46166C6.26939 2.04393 6.74862 1.8276 7.21286 1.8276C7.66964 1.8276 8.13385 2.04393 8.56066 2.47659C9.06236 2.93908 9.53408 3.42395 10.0433 3.93867C10.2979 4.19975 10.5599 4.46084 10.822 4.72939L13.0534 6.95234C13.5177 7.41483 13.7572 7.88482 13.7572 8.34728C13.7572 8.80982 13.5177 9.27976 13.0534 9.74222C12.8213 9.97345 12.5892 10.2122 12.357 10.4434C11.6607 11.1446 11.0092 11.8086 10.2903 12.4426C10.2754 12.4575 10.2679 12.465 10.2529 12.4799C9.63143 13.099 9.72878 13.6883 9.87856 14.1359C9.88608 14.1583 9.89351 14.1732 9.90102 14.1956C10.4776 15.5756 11.2788 16.8885 12.5292 18.4551C14.7756 21.2151 17.1418 23.356 19.7475 25.0046C20.0696 25.2134 20.414 25.3775 20.736 25.5416C21.0355 25.6909 21.3125 25.8326 21.5596 25.9892C21.5896 26.0042 21.6121 26.0191 21.642 26.034C21.8891 26.1608 22.1287 26.2204 22.3683 26.2204C22.9674 26.2204 23.3567 25.8401 23.484 25.7132L26.2845 22.9233C26.7188 22.4907 27.1905 22.2594 27.6547 22.2594C28.2238 22.2594 28.6881 22.61 28.9801 22.9233L33.4953 27.414C34.3938 28.3091 34.3864 29.2789 33.4728 30.2263C33.1583 30.562 32.8288 30.8827 32.4769 31.2184C31.9528 31.7257 31.4062 32.2479 30.912 32.8372C30.0508 33.7622 29.025 34.1948 27.6997 34.1948C27.5724 34.1948 27.4376 34.1873 27.3103 34.1799C24.8543 34.0232 22.5705 33.0684 20.8557 32.2553C16.1983 30.0099 12.1099 26.8247 8.71795 22.7816C5.92495 19.4322 4.0455 16.3141 2.80252 12.9723C2.03126 10.9208 1.73923 9.27228 1.85904 7.77287Z" fill="white"/>
</svg>
