<svg width="47" height="47" viewBox="0 0 47 47" fill="none" xmlns="http://www.w3.org/2000/svg">
<path d="M23.5782 16.3972C24.2251 16.3972 24.749 15.873 24.749 15.2264C24.749 14.5799 24.2251 14.0557 23.5782 14.0557C18.4057 14.0557 14.2124 18.2489 14.2124 23.4218C14.2124 28.5943 18.4057 32.7876 23.5782 32.7876C28.7511 32.7876 32.9443 28.5943 32.9443 23.4218C32.9443 22.7749 32.4201 22.251 31.7736 22.251C31.127 22.251 30.6028 22.7749 30.6028 23.4218C30.6028 27.3013 27.458 30.4464 23.5782 30.4464C19.6987 30.4464 16.5536 27.3013 16.5536 23.4218C16.5536 19.542 19.6987 16.3972 23.5782 16.3972Z" fill="white"/>
<path d="M45.9167 16.4679C45.7134 15.8536 45.0507 15.5205 44.4361 15.7238C43.8358 15.9225 43.5016 16.5615 43.6806 17.1678C47.1818 28.3172 40.9819 40.1938 29.8325 43.6949C18.6835 47.1961 6.80694 40.9963 3.30575 29.8469C-0.195797 18.6975 6.00443 6.82095 17.1534 3.31976C21.2807 2.02385 25.7056 2.02385 29.8325 3.31976C30.4521 3.50659 31.1058 3.15589 31.2927 2.53626C31.4766 1.92596 31.1392 1.28087 30.5328 1.08365C18.1528 -2.8005 4.96777 4.08677 1.08362 16.4671C-2.80053 28.8472 4.0871 42.0322 16.4671 45.9163C28.8475 49.8005 42.0322 42.9132 45.9163 30.5329C47.3528 25.9545 47.3528 21.0462 45.9167 16.4679Z" fill="white"/>
<path d="M25.808 8.36421C25.8141 7.69761 25.3021 7.14037 24.6373 7.09053C24.2877 7.06077 23.9377 7.03101 23.5787 7.03101C14.5264 7.03101 7.18799 14.3694 7.18799 23.4218C7.18799 32.4738 14.5264 39.8121 23.5787 39.8121C32.6308 39.8121 39.9691 32.4738 39.9691 23.4218C39.9691 22.9983 39.9433 22.5751 39.8913 22.1549C39.7977 21.5123 39.201 21.0673 38.5585 21.1609C37.9159 21.2541 37.4709 21.8512 37.5641 22.4937C37.5677 22.5181 37.572 22.5422 37.577 22.5665C37.6025 22.8502 37.6276 23.1313 37.6276 23.421C37.628 31.1804 31.3381 37.4703 23.5791 37.471C15.8198 37.4713 9.52988 31.1811 9.52952 23.4221C9.52917 15.6631 15.8187 9.3729 23.578 9.37254H23.5784C23.8688 9.37254 24.1503 9.39764 24.4332 9.42274L24.6527 9.44103C25.2644 9.46721 25.7815 8.99245 25.8073 8.38071C25.8077 8.37497 25.8077 8.36959 25.808 8.36421Z" fill="white"/>
<path d="M30.6032 10.5434V14.7417L22.751 22.5939C22.2859 23.0432 22.273 23.7844 22.7223 24.2495C23.1716 24.7145 23.9128 24.7274 24.3779 24.2781C24.3875 24.2688 24.3972 24.2591 24.4065 24.2495L32.2587 16.3972H36.457C36.7676 16.3972 37.0652 16.2739 37.285 16.0541L44.3092 9.02947C44.7664 8.57228 44.7664 7.8311 44.3092 7.3739C44.0898 7.15445 43.7922 7.0311 43.4816 7.0311H39.9693V3.5188C39.9693 2.87228 39.4451 2.34803 38.7982 2.34839C38.488 2.34839 38.1904 2.47174 37.971 2.69119L30.9463 9.7158C30.7265 9.93525 30.6032 10.2329 30.6032 10.5434ZM32.9447 11.0282L37.6278 6.34514V8.20187C37.6278 8.84839 38.152 9.37264 38.7986 9.37264H40.6553L35.9722 14.0557H32.9447V11.0282Z" fill="white"/>
</svg>
