<svg width="18" height="13" viewBox="0 0 18 13" fill="none" xmlns="http://www.w3.org/2000/svg">
<path d="M16.418 0H1.58203C0.711492 0 0 0.711141 0 1.58824V11.1176C0 11.9951 0.711949 12.7059 1.58203 12.7059H16.418C17.2885 12.7059 18 11.9947 18 11.1176V1.58824C18 0.710929 17.2882 0 16.418 0ZM16.175 1.05882C15.6636 1.57401 9.65549 7.62529 9.40866 7.87391C9.2025 8.0815 8.79761 8.08165 8.59134 7.87391L1.82496 1.05882H16.175ZM1.05469 10.923V1.78288L5.59213 6.35294L1.05469 10.923ZM1.82496 11.6471L6.3367 7.10287L7.84438 8.6214C8.46221 9.24367 9.53803 9.24342 10.1557 8.6214L11.6633 7.10291L16.175 11.6471H1.82496ZM16.9453 10.923L12.4079 6.35294L16.9453 1.78288V10.923Z" fill="#018AFE"/>
</svg>
