<svg width="62" height="47" viewBox="0 0 62 47" fill="none" xmlns="http://www.w3.org/2000/svg">
<path d="M3.69043 32.4968C3.69043 38.4589 8.54091 43.3093 14.503 43.3093C20.465 43.3093 25.3155 38.4589 25.3155 32.4968C25.3155 26.5347 20.465 21.6842 14.503 21.6842C8.54091 21.6841 3.69043 26.5346 3.69043 32.4968ZM23.5298 32.4968C23.5298 37.4742 19.4804 41.5235 14.5031 41.5235C9.52584 41.5235 5.47623 37.4742 5.47623 32.4968C5.47623 27.5194 9.52573 23.47 14.503 23.47C19.4803 23.47 23.5298 27.5193 23.5298 32.4968Z" fill="white"/>
<path d="M59.0743 25.0662C59.0722 25.0615 59.0706 25.0566 59.0683 25.052L51.8257 10.0368C50.8251 7.96207 49.163 6.31627 47.1686 5.30265L46.485 3.8852C45.3465 1.52496 42.9175 0 40.2972 0C36.5091 0 33.4273 3.08182 33.4273 6.86999V9.50786C32.8254 10.5871 32.4108 11.7842 32.2276 13.0553H28.8997C28.7165 11.7842 28.3019 10.587 27.6999 9.50762V6.86999C27.6999 3.08194 24.618 0 20.83 0C18.2096 0 15.7808 1.52508 14.6422 3.88532L13.9586 5.30265C11.9642 6.31639 10.3021 7.96219 9.30142 10.0368L8.04696 12.6374C7.83266 13.0815 8.0191 13.6153 8.46317 13.8296C8.90736 14.0437 9.44107 13.8576 9.65537 13.4133L10.9098 10.8126C12.3318 7.86433 15.3659 5.95935 18.6392 5.95935C23.3711 5.95935 27.2208 9.80895 27.2208 14.5409V25.5252C26.38 23.9928 25.26 22.6066 23.8937 21.4448C23.5181 21.1252 22.9545 21.171 22.6352 21.5464C22.3157 21.9221 22.3612 22.4857 22.7369 22.8051C25.5865 25.2284 27.2208 28.7609 27.2208 32.4966C27.2208 39.509 21.5157 45.2141 14.5034 45.2141C7.49097 45.2141 1.7858 39.5091 1.7858 32.4968C1.7858 25.4844 7.49086 19.7793 14.5032 19.7793C16.3261 19.7793 18.0854 20.1566 19.7327 20.9007C20.1816 21.1036 20.7109 20.904 20.914 20.4545C21.117 20.0051 20.9172 19.4762 20.4679 19.2732C18.5881 18.4241 16.5813 17.9935 14.5032 17.9935C11.4059 17.9935 8.53269 18.97 6.174 20.6306L7.99802 16.8489C8.21232 16.4048 8.02588 15.871 7.58181 15.6567C7.13786 15.4429 6.60391 15.6289 6.38961 16.0731L2.05868 25.052C2.05641 25.0566 2.05487 25.0615 2.05272 25.0662C0.750157 27.2408 0 29.7826 0 32.4968C0 40.4938 6.50604 47 14.5032 47C22.3996 47 28.8415 40.6567 29.0027 32.7983H32.1245C32.2857 40.6567 38.7276 47 46.6238 47C54.621 47 61.127 40.4938 61.127 32.4968C61.127 29.7826 60.377 27.2408 59.0743 25.0662ZM50.2173 10.8126L54.9529 20.6303C52.5943 18.9699 49.7211 17.9934 46.6238 17.9934C41.1497 17.9934 36.3748 21.0423 33.9065 25.5307V14.5409C33.9065 9.80895 37.7561 5.95935 42.488 5.95935C45.7612 5.95935 48.7952 7.86444 50.2173 10.8126ZM32.1207 31.0125H29.0066V14.841H32.1207V31.0125ZM40.2972 1.7858C42.1487 1.7858 43.8687 2.81598 44.7541 4.42915C44.0177 4.26212 43.2585 4.17366 42.488 4.17366C39.6561 4.17366 37.086 5.31551 35.2131 7.16239V6.86999C35.213 4.06652 37.4938 1.7858 40.2972 1.7858ZM18.6392 4.17354C17.8686 4.17354 17.1094 4.262 16.3731 4.42903C17.2586 2.81586 18.9786 1.78569 20.83 1.78569C23.6333 1.78569 25.9141 4.0664 25.9141 6.86987V7.16227C24.0411 5.31539 21.4711 4.17354 18.6392 4.17354ZM46.6238 45.2142C39.6114 45.2142 33.9065 39.5091 33.9065 32.4968C33.9065 25.4844 39.6114 19.7793 46.6238 19.7793C53.6362 19.7793 59.3412 25.4844 59.3412 32.4968C59.3412 39.5091 53.6362 45.2142 46.6238 45.2142Z" fill="white"/>
<path d="M50.6806 22.4764C50.2237 22.2907 49.7027 22.5108 49.5173 22.9676C49.3316 23.4245 49.5516 23.9453 50.0086 24.1309C53.4361 25.5231 55.6509 28.807 55.6509 32.4967C55.6509 37.4741 51.6014 41.5234 46.6241 41.5234C41.6468 41.5234 37.5974 37.4741 37.5974 32.4967C37.5974 27.5292 41.6387 23.48 46.6064 23.4704C47.0995 23.4694 47.4984 23.0688 47.4975 22.5757C47.4965 22.0832 47.097 21.6846 46.6046 21.6846C46.604 21.6846 46.6034 21.6846 46.6028 21.6846C40.6526 21.6961 35.8115 26.5465 35.8115 32.4967C35.8115 38.4588 40.662 43.3092 46.624 43.3092C52.5861 43.3092 57.4365 38.4588 57.4365 32.4967C57.4367 28.0768 54.7849 24.1435 50.6806 22.4764Z" fill="white"/>
</svg>
