<svg width="48" height="48" viewBox="0 0 48 48" fill="none" xmlns="http://www.w3.org/2000/svg">
<path d="M32.6256 18.4795H34.1388V16.8565C35.0127 16.5796 35.6521 15.7707 35.6521 14.8068C35.6521 13.9836 35.1951 13.2436 34.4581 12.8751L32.9834 12.1374C32.7625 12.0277 32.6256 11.806 32.6256 11.5594C32.6256 11.203 32.9161 10.9132 33.2717 10.9132H33.4919C33.8483 10.9132 34.1388 11.203 34.1388 11.5594V11.6698H35.6521V11.5594C35.6521 10.5954 35.0127 9.7866 34.1388 9.50968V7.88672H32.6256V9.50968C31.7517 9.7866 31.1123 10.5954 31.1123 11.5594C31.1123 12.3826 31.5693 13.1226 32.3063 13.491L33.7809 14.2287C34.0019 14.3385 34.1388 14.5601 34.1388 14.8068C34.1388 15.1632 33.8483 15.453 33.4926 15.453H33.2725C32.9161 15.453 32.6256 15.1632 32.6256 14.8068V13.9397H31.1123V14.8068C31.1123 15.7707 31.7517 16.5796 32.6256 16.8565V18.4795Z" fill="white"/>
<path d="M33.3824 22.263C33.9991 22.263 34.5991 22.154 35.1666 21.9399C39.5058 20.3041 41.7053 18.6312 41.7053 16.9666C41.7053 14.6551 40.242 6.5812 40.1792 6.23845L40.0672 5.61726H38.3807C36.7456 5.61726 35.1628 5.13832 33.8024 4.23112L33.3824 3.95117L32.9625 4.23112C31.6021 5.13832 30.02 5.61726 28.3849 5.61726H26.6984L26.5864 6.23845C26.5229 6.5812 25.0596 14.6551 25.0596 16.9666C25.0596 18.6312 27.2591 20.3041 31.5976 21.9399C32.1658 22.154 32.7658 22.263 33.3824 22.263ZM26.5728 16.9666C26.5728 15.1439 27.6154 9.09471 27.9627 7.13051H28.3849C30.1532 7.13051 31.8707 6.65686 33.3824 5.75496C34.8942 6.65686 36.6117 7.13051 38.3799 7.13051H38.8021C39.1494 9.09471 40.1921 15.1439 40.1921 16.9666C40.1921 17.6703 38.4526 19.0837 34.6324 20.5243C33.8402 20.8239 32.9247 20.8239 32.131 20.5243C28.3123 19.0837 26.5728 17.6703 26.5728 16.9666Z" fill="white"/>
<path d="M45.4885 23.7763H38.607C42.7662 21.834 44.7319 19.6406 44.7319 16.9667C44.7319 14.4812 43.4206 7.14342 43.1573 5.69676L42.5921 2.59081H39.7926C37.696 2.59081 35.5964 2.09522 33.7215 1.15701L33.3825 0.988281L33.0443 1.15777C31.1686 2.09522 29.069 2.59081 26.9724 2.59081H24.1729L23.6077 5.69751C23.3444 7.14342 22.0331 14.4812 22.0331 16.9667C22.0331 19.6406 23.9989 21.8348 28.158 23.7763H21.2765C20.0251 23.7763 19.0066 24.7947 19.0066 26.0462V26.8028H11.4404V19.2366C11.4404 18.402 12.1191 17.7233 12.9536 17.7233C13.7882 17.7233 14.4669 18.402 14.4669 19.2366H15.9801C15.9801 18.402 16.6588 17.7233 17.4934 17.7233C18.328 17.7233 19.0066 18.402 19.0066 19.2366H20.5199V16.2101C20.5199 10.7866 16.1073 6.37393 10.6838 6.37393C5.26029 6.37393 0.847656 10.7866 0.847656 16.2101V19.2366H2.36091C2.36091 18.402 3.0396 17.7233 3.87415 17.7233C4.70871 17.7233 5.3874 18.402 5.3874 19.2366H6.90065C6.90065 18.402 7.57934 17.7233 8.4139 17.7233C9.24846 17.7233 9.92715 18.402 9.92715 19.2366V26.8028H3.11753C1.86607 26.8028 0.847656 27.8212 0.847656 29.0727V30.5859C0.847656 31.571 1.48246 32.4033 2.36091 32.7166V47.9883H46.2451V29.6901C47.1236 29.3768 47.7584 28.5445 47.7584 27.5594V26.0462C47.7584 24.7947 46.74 23.7763 45.4885 23.7763ZM23.5464 16.9667C23.5464 15.1402 24.3817 9.90056 25.096 5.96838L25.4349 4.10406H26.9724C29.1772 4.10406 31.385 3.61074 33.3825 2.6748C35.38 3.61074 37.5878 4.10406 39.7926 4.10406H41.3301L41.6691 5.96763C42.3833 9.90056 43.2186 15.1402 43.2186 16.9667C43.2186 19.3932 40.83 21.4232 35.6993 23.3564C34.2246 23.9132 32.5404 23.9132 31.0627 23.3556C25.9351 21.4232 23.5464 19.3932 23.5464 16.9667ZM19.0066 16.2101V16.6164C18.561 16.3576 18.0442 16.2101 17.4934 16.2101C16.9078 16.2101 16.3653 16.3848 15.9015 16.6739C15.5564 12.4315 14.0485 9.71897 12.8091 8.17243C16.3706 9.11594 19.0066 12.3566 19.0066 16.2101ZM3.87415 16.2101C3.32333 16.2101 2.80656 16.3576 2.36091 16.6164V16.2101C2.36091 12.3566 4.99699 9.11594 8.55842 8.17243C7.31907 9.71821 5.81111 12.4315 5.46609 16.6739C5.00228 16.3848 4.45978 16.2101 3.87415 16.2101ZM8.4139 16.2101C7.89864 16.2101 7.42121 16.3515 6.99599 16.5793C7.46661 11.494 9.7274 8.95327 10.6838 8.10055C11.6401 8.95402 13.9009 11.494 14.3716 16.5793C13.9463 16.3515 13.4689 16.2101 12.9536 16.2101C12.0449 16.2101 11.2391 16.6201 10.6838 17.2557C10.1284 16.6201 9.32261 16.2101 8.4139 16.2101ZM15.9801 41.9353H20.5199V46.475H15.9801V41.9353ZM14.4669 46.475H9.92715V41.9353H14.4669V46.475ZM20.5199 37.3955H7.65728V35.8823H20.5199V37.3955ZM2.36091 29.0727C2.36091 28.6558 2.69987 28.316 3.11753 28.316H19.1459C19.3744 28.9569 19.879 29.4616 20.5199 29.6901V31.3425H3.11753C2.69987 31.3425 2.36091 31.0028 2.36091 30.5859V29.0727ZM3.87415 32.8558H20.5199V34.369H6.14403V38.9088H20.5199V40.422H8.4139V46.475H3.87415V32.8558ZM38.6789 46.475H34.1391V38.9088H38.6789V46.475ZM32.6259 46.475H28.0861V38.9088H32.6259V46.475ZM40.1921 46.475V37.3955H26.5729V46.475H22.0331V29.8293H44.7319V46.475H40.1921ZM46.2451 27.5594C46.2451 27.9763 45.9062 28.316 45.4885 28.316H21.2765C20.8589 28.316 20.5199 27.9763 20.5199 27.5594V26.0462C20.5199 25.6293 20.8589 25.2895 21.2765 25.2895H45.4885C45.9062 25.2895 46.2451 25.6293 46.2451 26.0462V27.5594Z" fill="white"/>
<path d="M24.3027 35.8815H42.4617V31.3418H24.3027V35.8815ZM25.816 32.855H40.9485V34.3683H25.816V32.855Z" fill="white"/>
</svg>
