<svg width="13" height="16" viewBox="0 0 13 16" fill="none" xmlns="http://www.w3.org/2000/svg">
<path d="M8.75 12.75C8.6837 12.75 8.62011 12.7237 8.57322 12.6768C8.52634 12.6299 8.5 12.5663 8.5 12.5V6.00006C8.5 5.93376 8.52634 5.87017 8.57322 5.82328C8.62011 5.7764 8.6837 5.75006 8.75 5.75006C8.8163 5.75006 8.87989 5.7764 8.92678 5.82328C8.97366 5.87017 9 5.93376 9 6.00006V12.5C9 12.5663 8.97366 12.6299 8.92678 12.6768C8.87989 12.7237 8.8163 12.75 8.75 12.75Z" fill="#018AFE"/>
<path d="M11.75 15H7C6.9337 15 6.87011 14.9736 6.82322 14.9268C6.77634 14.8799 6.75 14.8163 6.75 14.75C6.75 14.6837 6.77634 14.6201 6.82322 14.5732C6.87011 14.5263 6.9337 14.5 7 14.5H11.75C11.9489 14.5 12.1397 14.421 12.2803 14.2803C12.421 14.1397 12.5 13.9489 12.5 13.75V6.5C12.5 6.4337 12.5263 6.37011 12.5732 6.32322C12.6201 6.27634 12.6837 6.25 12.75 6.25C12.8163 6.25 12.8799 6.27634 12.9268 6.32322C12.9736 6.37011 13 6.4337 13 6.5V13.75C12.9996 14.0814 12.8678 14.3991 12.6334 14.6334C12.3991 14.8678 12.0814 14.9996 11.75 15Z" fill="#018AFE"/>
<path d="M12.75 5.74999C12.6837 5.74999 12.6201 5.72366 12.5732 5.67677C12.5263 5.62989 12.5 5.5663 12.5 5.5V4.75C12.5 4.55109 12.421 4.36032 12.2803 4.21967C12.1397 4.07902 11.9489 4 11.75 4H5.75C5.55109 4 5.36032 4.07902 5.21967 4.21967C5.07902 4.36032 5 4.55109 5 4.75V5.25C5 5.3163 4.97366 5.37989 4.92678 5.42677C4.87989 5.47366 4.8163 5.5 4.75 5.5C4.6837 5.5 4.62011 5.47366 4.57322 5.42677C4.52634 5.37989 4.5 5.3163 4.5 5.25V4.75C4.5004 4.4186 4.63222 4.10089 4.86655 3.86655C5.10089 3.63222 5.4186 3.5004 5.75 3.5H11.75C12.0814 3.5004 12.3991 3.63222 12.6334 3.86655C12.8678 4.10089 12.9996 4.4186 13 4.75V5.5C13 5.5663 12.9736 5.62989 12.9268 5.67677C12.8799 5.72366 12.8163 5.74999 12.75 5.74999Z" fill="#018AFE"/>
<path d="M10.75 12.75C10.6837 12.75 10.6201 12.7237 10.5732 12.6768C10.5263 12.6299 10.5 12.5663 10.5 12.5V6.00006C10.5 5.93376 10.5263 5.87017 10.5732 5.82328C10.6201 5.7764 10.6837 5.75006 10.75 5.75006C10.8163 5.75006 10.8799 5.7764 10.9268 5.82328C10.9737 5.87017 11 5.93376 11 6.00006V12.5C11 12.5663 10.9737 12.6299 10.9268 12.6768C10.8799 12.7237 10.8163 12.75 10.75 12.75Z" fill="#018AFE"/>
<path d="M6.75 6.75006C6.6837 6.75006 6.62011 6.72372 6.57322 6.67684C6.52634 6.62995 6.5 6.56636 6.5 6.50006V6.00006C6.5 5.93376 6.52634 5.87017 6.57322 5.82328C6.62011 5.7764 6.6837 5.75006 6.75 5.75006C6.8163 5.75006 6.87989 5.7764 6.92678 5.82328C6.97366 5.87017 7 5.93376 7 6.00006V6.50006C7 6.56636 6.97366 6.62995 6.92678 6.67684C6.87989 6.72372 6.8163 6.75006 6.75 6.75006Z" fill="#018AFE"/>
<path d="M6.75 16C6.55109 16 6.36032 15.921 6.21967 15.7803C6.07902 15.6397 6 15.4489 6 15.25V14.75C6 14.6837 6.02634 14.6201 6.07322 14.5732C6.12011 14.5263 6.1837 14.5 6.25 14.5H7.25C7.3163 14.5 7.37989 14.5263 7.42677 14.5732C7.47366 14.6201 7.5 14.6837 7.5 14.75V15.25C7.5 15.4489 7.42098 15.6397 7.28033 15.7803C7.13967 15.921 6.94891 16 6.75 16ZM6.5 15V15.25C6.5 15.3163 6.52634 15.3799 6.57322 15.4268C6.62011 15.4737 6.68369 15.5 6.75 15.5C6.8163 15.5 6.87989 15.4737 6.92677 15.4268C6.97366 15.3799 7 15.3163 7 15.25V15H6.5Z" fill="#018AFE"/>
<path d="M10.75 16C10.5511 16 10.3603 15.921 10.2197 15.7803C10.079 15.6397 10 15.4489 10 15.25V14.75C10 14.6837 10.0263 14.6201 10.0732 14.5732C10.1201 14.5263 10.1837 14.5 10.25 14.5H11.25C11.3163 14.5 11.3799 14.5263 11.4268 14.5732C11.4737 14.6201 11.5 14.6837 11.5 14.75V15.25C11.5 15.4489 11.421 15.6397 11.2803 15.7803C11.1397 15.921 10.9489 16 10.75 16ZM10.5 15V15.25C10.5 15.3163 10.5263 15.3799 10.5732 15.4268C10.6201 15.4737 10.6837 15.5 10.75 15.5C10.8163 15.5 10.8799 15.4737 10.9268 15.4268C10.9737 15.3799 11 15.3163 11 15.25V15H10.5Z" fill="#018AFE"/>
<path d="M10.5 3.99999H7C6.9337 3.99999 6.87011 3.97365 6.82322 3.92677C6.77634 3.87988 6.75 3.81629 6.75 3.74999V0.249999C6.75 0.183695 6.77634 0.120107 6.82322 0.0732231C6.87011 0.0263392 6.9337 0 7 0L10.5 0C10.5663 0 10.6299 0.0263392 10.6768 0.0732231C10.7237 0.120107 10.75 0.183695 10.75 0.249999V3.74999C10.75 3.81629 10.7237 3.87988 10.6768 3.92677C10.6299 3.97365 10.5663 3.99999 10.5 3.99999ZM7.25 3.49999H10.25V0.499999H7.25V3.49999Z" fill="#018AFE"/>
<path d="M11.5 3.25H11.25C11.1837 3.25 11.1201 3.22366 11.0732 3.17678C11.0263 3.12989 11 3.0663 11 3C11 2.9337 11.0263 2.87011 11.0732 2.82322C11.1201 2.77634 11.1837 2.75 11.25 2.75H11.5C11.5663 2.75 11.6299 2.77634 11.6768 2.82322C11.7237 2.87011 11.75 2.9337 11.75 3C11.75 3.0663 11.7237 3.12989 11.6768 3.17678C11.6299 3.22366 11.5663 3.25 11.5 3.25Z" fill="#018AFE"/>
<path d="M6.25 3.25H6C5.9337 3.25 5.87011 3.22366 5.82322 3.17678C5.77634 3.12989 5.75 3.0663 5.75 3C5.75 2.9337 5.77634 2.87011 5.82322 2.82322C5.87011 2.77634 5.9337 2.75 6 2.75H6.25C6.3163 2.75 6.37989 2.77634 6.42678 2.82322C6.47366 2.87011 6.5 2.9337 6.5 3C6.5 3.0663 6.47366 3.12989 6.42678 3.17678C6.37989 3.22366 6.3163 3.25 6.25 3.25Z" fill="#018AFE"/>
<path d="M3.99985 15C3.9668 15.0001 3.93407 14.9935 3.9036 14.9807C2.1321 14.2435 0.879108 12.3662 0.279109 9.55199C0.270976 9.51942 0.269484 9.48555 0.274724 9.45239C0.279964 9.41923 0.291827 9.38747 0.309607 9.359C0.327387 9.33052 0.350719 9.30592 0.378211 9.28666C0.405704 9.2674 0.436794 9.25387 0.469627 9.24689C0.50246 9.2399 0.536365 9.2396 0.569317 9.246C0.60227 9.2524 0.633596 9.26537 0.661428 9.28413C0.68926 9.3029 0.713028 9.32708 0.731313 9.35523C0.749599 9.38338 0.762027 9.41493 0.767858 9.44799C1.15536 11.264 2.02986 13.5957 3.99985 14.4777C6.46784 13.375 7.23809 10.0092 7.47759 7.93974C6.26179 7.62767 5.09246 7.15661 3.99985 6.53874C2.90723 7.15617 1.738 7.62689 0.522359 7.93874C0.542109 8.10799 0.564859 8.28299 0.591359 8.46374C0.599357 8.52852 0.581698 8.59387 0.542158 8.64581C0.502617 8.69774 0.44433 8.73216 0.379753 8.74169C0.315176 8.75122 0.249432 8.73512 0.19657 8.69682C0.143708 8.65853 0.107922 8.60107 0.0968597 8.53674C0.0576097 8.27249 0.0263598 8.01749 0.00135987 7.77624C-0.00494496 7.71603 0.0108142 7.65557 0.0457111 7.6061C0.0806081 7.55663 0.132272 7.5215 0.191109 7.50724C1.4833 7.19703 2.72364 6.70095 3.87335 6.0345C3.91176 6.01214 3.95541 6.00037 3.99985 6.00037C4.04429 6.00037 4.08794 6.01214 4.12635 6.0345C5.27602 6.70104 6.51637 7.19713 7.80859 7.50724C7.86743 7.52145 7.91911 7.55652 7.95406 7.60594C7.989 7.65536 8.00482 7.71579 7.99859 7.77599C7.77359 9.95474 6.96859 13.7882 4.0946 14.9812C4.06454 14.9936 4.03235 14.9999 3.99985 15Z" fill="#018AFE"/>
<path d="M3.49985 11.75C3.43356 11.75 3.36998 11.7236 3.3231 11.6767L2.32311 10.6767C2.27757 10.6296 2.25237 10.5664 2.25294 10.5009C2.25351 10.4353 2.2798 10.3726 2.32615 10.3263C2.3725 10.2799 2.43521 10.2536 2.50076 10.2531C2.56631 10.2525 2.62946 10.2777 2.67661 10.3232L3.49985 11.1465L5.3231 9.32323C5.37025 9.27769 5.4334 9.25249 5.49895 9.25306C5.5645 9.25363 5.6272 9.27992 5.67355 9.32627C5.71991 9.37263 5.7462 9.43533 5.74677 9.50088C5.74734 9.56643 5.72214 9.62958 5.6766 9.67673L3.6766 11.6767C3.62973 11.7236 3.56615 11.75 3.49985 11.75Z" fill="#018AFE"/>
</svg>
