<svg width="32" height="36" viewBox="0 0 32 36" fill="none" xmlns="http://www.w3.org/2000/svg">
<path d="M21.8303 23.7857C25.6612 17.7744 25.1796 18.5244 25.29 18.3677C26.6847 16.4005 27.4219 14.0851 27.4219 11.6719C27.4219 5.27203 22.2285 0 15.8203 0C9.43298 0 4.21875 5.26163 4.21875 11.6719C4.21875 14.0836 4.97137 16.4595 6.4118 18.4532L9.81014 23.7857C6.17674 24.3441 0 26.008 0 29.6719C0 31.0075 0.871734 32.9108 5.02467 34.394C7.9245 35.4296 11.7584 36 15.8203 36C23.4158 36 31.6406 33.8574 31.6406 29.6719C31.6406 26.0074 25.4711 24.3452 21.8303 23.7857ZM8.17376 17.293C8.16216 17.2749 8.15006 17.2571 8.13741 17.2397C6.93879 15.5907 6.32812 13.6365 6.32812 11.6719C6.32812 6.39717 10.5754 2.10938 15.8203 2.10938C21.0543 2.10938 25.3125 6.39907 25.3125 11.6719C25.3125 13.6396 24.7134 15.5276 23.5796 17.1331C23.478 17.2671 24.0081 16.4436 15.8203 29.2914L8.17376 17.293ZM15.8203 33.8906C7.52386 33.8906 2.10938 31.452 2.10938 29.6719C2.10938 28.4754 4.8915 26.5082 11.0565 25.7413L14.9309 31.8208C15.1245 32.1247 15.4599 32.3086 15.8202 32.3086C16.1806 32.3086 16.5161 32.1246 16.7096 31.8208L20.5839 25.7413C26.7491 26.5082 29.5312 28.4754 29.5312 29.6719C29.5312 31.4369 24.1655 33.8906 15.8203 33.8906Z" fill="white"/>
<path d="M15.8203 6.39844C12.9125 6.39844 10.5469 8.7641 10.5469 11.6719C10.5469 14.5796 12.9125 16.9453 15.8203 16.9453C18.7281 16.9453 21.0938 14.5796 21.0938 11.6719C21.0938 8.7641 18.7281 6.39844 15.8203 6.39844ZM15.8203 14.8359C14.0756 14.8359 12.6562 13.4165 12.6562 11.6719C12.6562 9.92721 14.0756 8.50781 15.8203 8.50781C17.565 8.50781 18.9844 9.92721 18.9844 11.6719C18.9844 13.4165 17.565 14.8359 15.8203 14.8359Z" fill="white"/>
</svg>
