<svg width="16" height="16" viewBox="0 0 16 16" fill="none" xmlns="http://www.w3.org/2000/svg">
<path d="M10.8179 5.95467H11.333V5.40218C11.6305 5.3079 11.8482 5.03256 11.8482 4.70441C11.8482 4.42417 11.6926 4.17226 11.4417 4.04682L10.9397 3.79569C10.8645 3.75834 10.8179 3.68287 10.8179 3.5989C10.8179 3.47758 10.9168 3.37893 11.0379 3.37893H11.1128C11.2341 3.37893 11.333 3.47758 11.333 3.5989V3.6365H11.8482V3.5989C11.8482 3.27075 11.6305 2.9954 11.333 2.90113V2.34863H10.8179V2.90113C10.5204 2.9954 10.3027 3.27075 10.3027 3.5989C10.3027 3.87914 10.4583 4.13105 10.7092 4.25649L11.2112 4.50762C11.2864 4.54497 11.333 4.62044 11.333 4.70441C11.333 4.82572 11.2341 4.92438 11.1131 4.92438H11.0381C10.9168 4.92438 10.8179 4.82572 10.8179 4.70441V4.40923H10.3027V4.70441C10.3027 5.03256 10.5204 5.3079 10.8179 5.40218V5.95467Z" fill="#018AFE"/>
<path d="M11.0755 7.24248C11.2854 7.24248 11.4897 7.20539 11.6829 7.1325C13.1601 6.57562 13.9088 6.00612 13.9088 5.43946C13.9088 4.65257 13.4107 1.904 13.3893 1.78731L13.3512 1.57585H12.777C12.2204 1.57585 11.6816 1.4128 11.2185 1.10397L11.0755 1.00867L10.9326 1.10397C10.4694 1.4128 9.93084 1.57585 9.37423 1.57585H8.80009L8.76197 1.78731C8.74034 1.904 8.24219 4.65257 8.24219 5.43946C8.24219 6.00612 8.99096 6.57562 10.4679 7.1325C10.6613 7.20539 10.8656 7.24248 11.0755 7.24248ZM8.75734 5.43946C8.75734 4.81896 9.11227 2.75966 9.2305 2.09099H9.37423C9.97618 2.09099 10.5609 1.92975 11.0755 1.62272C11.5901 1.92975 12.1748 2.09099 12.7768 2.09099H12.9205C13.0387 2.75966 13.3937 4.81896 13.3937 5.43946C13.3937 5.679 12.8015 6.16015 11.501 6.65057C11.2313 6.75257 10.9197 6.75257 10.6495 6.65057C9.3495 6.16015 8.75734 5.679 8.75734 5.43946Z" fill="#018AFE"/>
<path d="M15.1969 7.75762H12.8542C14.2701 7.09643 14.9393 6.34972 14.9393 5.43945C14.9393 4.59332 14.4929 2.09537 14.4033 1.60288L14.2109 0.545542H13.2579C12.5441 0.545542 11.8294 0.376831 11.1911 0.0574391L11.0757 0L10.9606 0.0576966C10.322 0.376831 9.60726 0.545542 8.89353 0.545542H7.9405L7.74809 1.60314C7.65846 2.09537 7.21208 4.59332 7.21208 5.43945C7.21208 6.34972 7.88126 7.09669 9.29715 7.75762H6.95451C6.52848 7.75762 6.18178 8.10432 6.18178 8.53034V8.78792H3.60604V6.21218C3.60604 5.92807 3.83708 5.69703 4.12119 5.69703C4.40529 5.69703 4.63634 5.92807 4.63634 6.21218H5.15149C5.15149 5.92807 5.38253 5.69703 5.66664 5.69703C5.95074 5.69703 6.18178 5.92807 6.18178 6.21218H6.69693V5.18188C6.69693 3.33559 5.19476 1.83341 3.34847 1.83341C1.50217 1.83341 0 3.33559 0 5.18188V6.21218H0.515149C0.515149 5.92807 0.746193 5.69703 1.0303 5.69703C1.3144 5.69703 1.54545 5.92807 1.54545 6.21218H2.06059C2.06059 5.92807 2.29164 5.69703 2.57574 5.69703C2.85985 5.69703 3.09089 5.92807 3.09089 6.21218V8.78792H0.772723C0.346695 8.78792 0 9.13461 0 9.56064V10.0758C0 10.4112 0.216105 10.6945 0.515149 10.8011V16H15.4545V9.77082C15.7535 9.66419 15.9696 9.38086 15.9696 9.04549V8.53034C15.9696 8.10432 15.6229 7.75762 15.1969 7.75762ZM7.72723 5.43945C7.72723 4.81767 8.01159 3.03397 8.25474 1.69535L8.37013 1.06069H8.89353C9.6441 1.06069 10.3957 0.892753 11.0757 0.574133C11.7557 0.892753 12.5073 1.06069 13.2579 1.06069H13.7813L13.8966 1.6951C14.1398 3.03397 14.4242 4.81767 14.4242 5.43945C14.4242 6.26549 13.611 6.95657 11.8644 7.61467C11.3624 7.80424 10.789 7.80424 10.286 7.61441C8.54039 6.95657 7.72723 6.26549 7.72723 5.43945ZM6.18178 5.18188V5.3202C6.03007 5.23211 5.85415 5.18188 5.66664 5.18188C5.46727 5.18188 5.28259 5.24138 5.1247 5.33977C5.00724 3.89555 4.4939 2.97215 4.07199 2.44567C5.28439 2.76686 6.18178 3.87005 6.18178 5.18188ZM1.0303 5.18188C0.842783 5.18188 0.66686 5.23211 0.515149 5.3202V5.18188C0.515149 3.87005 1.41254 2.76686 2.62494 2.44567C2.20303 2.97189 1.68969 3.89555 1.57223 5.33977C1.41434 5.24138 1.22966 5.18188 1.0303 5.18188ZM2.57574 5.18188C2.40034 5.18188 2.23781 5.23005 2.09305 5.30758C2.25326 3.57642 3.02289 2.71148 3.34847 2.4212C3.67404 2.71174 4.44367 3.57642 4.60388 5.30758C4.45913 5.23005 4.2966 5.18188 4.12119 5.18188C3.81184 5.18188 3.53753 5.32149 3.34847 5.53785C3.15941 5.32149 2.88509 5.18188 2.57574 5.18188ZM5.15149 13.9394H6.69693V15.4849H5.15149V13.9394ZM4.63634 15.4849H3.09089V13.9394H4.63634V15.4849ZM6.69693 12.394H2.31817V11.8788H6.69693V12.394ZM0.515149 9.56064C0.515149 9.41872 0.630542 9.30307 0.772723 9.30307H6.22918C6.30696 9.52123 6.47877 9.69304 6.69693 9.77082V10.3334H0.772723C0.630542 10.3334 0.515149 10.2177 0.515149 10.0758V9.56064ZM1.0303 10.8485H6.69693V11.3637H1.80302V12.9091H6.69693V13.4243H2.57574V15.4849H1.0303V10.8485ZM12.8787 15.4849H11.3333V12.9091H12.8787V15.4849ZM10.8181 15.4849H9.27268V12.9091H10.8181V15.4849ZM13.3939 15.4849V12.394H8.75753V15.4849H7.21208V9.81822H14.9393V15.4849H13.3939ZM15.4545 9.04549C15.4545 9.18742 15.3391 9.30307 15.1969 9.30307H6.95451C6.81233 9.30307 6.69693 9.18742 6.69693 9.04549V8.53034C6.69693 8.38842 6.81233 8.27277 6.95451 8.27277H15.1969C15.3391 8.27277 15.4545 8.38842 15.4545 8.53034V9.04549Z" fill="#018AFE"/>
<path d="M7.98438 11.8788H14.1662V10.3334H7.98438V11.8788ZM8.49952 10.8485H13.651V11.3637H8.49952V10.8485Z" fill="#018AFE"/>
</svg>
