<svg width="48" height="48" viewBox="0 0 48 48" fill="none" xmlns="http://www.w3.org/2000/svg">
<path d="M38.7291 41.2648H5.43777C2.73922 41.2648 0.541992 39.0676 0.541992 36.369V34.4107C0.541992 30.6312 3.61654 27.5566 7.39609 27.5566H27.6646C28.2051 27.5566 28.6438 27.9953 28.6438 28.5358C28.6438 29.0763 28.2051 29.515 27.6646 29.515H7.39609C4.69753 29.515 2.50031 31.7122 2.50031 34.4107V36.369C2.50031 37.9886 3.81825 39.3065 5.43777 39.3065H38.7291C40.3486 39.3065 41.6666 37.9886 41.6666 36.369V34.4107C41.6666 33.1848 41.2103 32.0157 40.38 31.1188C40.0118 30.7213 40.0372 30.1024 40.4348 29.7343C40.8284 29.3661 41.4511 29.3896 41.8193 29.7891C42.9825 31.0503 43.6249 32.6913 43.6249 34.4107V36.369C43.6249 39.0676 41.4277 41.2648 38.7291 41.2648Z" fill="white"/>
<path d="M4.45862 47.1405C2.2986 47.1405 0.541992 45.3839 0.541992 43.2239V36.3698C0.541992 35.8293 0.980654 35.3906 1.52115 35.3906C2.06164 35.3906 2.50031 35.8293 2.50031 36.3698V43.2239C2.50031 44.3029 3.37959 45.1822 4.45862 45.1822C5.53765 45.1822 6.41693 44.3029 6.41693 43.2239V40.2864C6.41693 39.7459 6.85559 39.3073 7.39609 39.3073C7.93658 39.3073 8.37524 39.7459 8.37524 40.2864V43.2239C8.37524 45.3839 6.61864 47.1405 4.45862 47.1405Z" fill="white"/>
<path d="M39.7086 47.1405C37.5486 47.1405 35.792 45.3839 35.792 43.2239V40.2864C35.792 39.7459 36.2307 39.3073 36.7711 39.3073C37.3116 39.3073 37.7503 39.7459 37.7503 40.2864V43.2239C37.7503 44.3029 38.6296 45.1822 39.7086 45.1822C40.7876 45.1822 41.6669 44.3029 41.6669 43.2239V36.3698C41.6669 35.8293 42.1056 35.3906 42.6461 35.3906C43.1866 35.3906 43.6252 35.8293 43.6252 36.3698V43.2239C43.6252 45.3839 41.8686 47.1405 39.7086 47.1405Z" fill="white"/>
<path d="M5.43824 29.5168C5.31291 29.5168 5.18562 29.4933 5.06225 29.4404C4.56288 29.2328 4.32788 28.659 4.53546 28.1597L8.4325 18.8185C9.1982 16.9914 10.9666 15.8086 12.9386 15.8086H19.5773C20.1178 15.8086 20.5564 16.2473 20.5564 16.7878C20.5564 17.3282 20.1197 17.7669 19.5773 17.7669H12.9386C11.7753 17.7669 10.6924 18.4934 10.24 19.5744L6.34298 28.9156C6.18436 29.2896 5.82011 29.5168 5.43824 29.5168Z" fill="white"/>
<path d="M13.2711 35.39H7.39615C6.85565 35.39 6.41699 34.9513 6.41699 34.4108C6.41699 33.8703 6.85565 33.4316 7.39615 33.4316H13.2711C13.8116 33.4316 14.2502 33.8703 14.2502 34.4108C14.2502 34.9513 13.8116 35.39 13.2711 35.39Z" fill="white"/>
<path d="M36.7711 35.39H30.8961C30.3557 35.39 29.917 34.9513 29.917 34.4108C29.917 33.8703 30.3557 33.4316 30.8961 33.4316H36.7711C37.3116 33.4316 37.7502 33.8703 37.7502 34.4108C37.7502 34.9513 37.3116 35.39 36.7711 35.39Z" fill="white"/>
<path d="M35.7919 27.5575C35.6626 27.5575 35.5334 27.532 35.412 27.4792C34.9459 27.2853 24.042 22.5716 24.042 12.9406V4.75686C24.042 4.33778 24.3103 3.96374 24.7078 3.82862L35.4785 0.192031C35.6822 0.12349 35.9015 0.12349 36.1052 0.192031L46.8759 3.82862C47.2735 3.96374 47.5417 4.33778 47.5417 4.75686V12.9406C47.5417 22.5716 36.6379 27.2853 36.1718 27.4811C36.0504 27.532 35.9211 27.5575 35.7919 27.5575ZM26.0003 5.45989V12.9406C26.0003 20.3529 33.9413 24.6083 35.7919 25.5013C37.6405 24.6063 45.5834 20.3352 45.5834 12.9406V5.45989L35.7919 2.15426L26.0003 5.45989Z" fill="white"/>
<path d="M34.8122 17.766C34.7946 17.766 34.775 17.766 34.7574 17.7641C34.4793 17.7484 34.2208 17.6152 34.0465 17.3979L30.1299 12.5021C29.793 12.0791 29.8616 11.4642 30.2826 11.1254C30.7056 10.7866 31.3205 10.8571 31.6593 11.2781L34.8925 15.3201L40.9731 9.23953C41.3549 8.85766 41.9757 8.85766 42.3576 9.23953C42.7395 9.6214 42.7395 10.2422 42.3576 10.6241L35.5035 17.4781C35.3214 17.6642 35.0707 17.766 34.8122 17.766Z" fill="white"/>
</svg>
