<svg width="40" height="40" viewBox="0 0 40 40" fill="none" xmlns="http://www.w3.org/2000/svg">
<path d="M32.4154 34.8388L30.9218 30.3575C30.3999 28.793 29.0683 27.6381 27.445 27.3426L23.1334 26.5581V26.2239C23.8837 25.7885 24.5366 25.2059 25.0566 24.5162H26.3592C27.4263 24.5162 28.2947 23.6478 28.2947 22.5807V14.8388C28.2947 10.2142 24.5321 6.45166 19.9076 6.45166C15.2831 6.45166 11.5205 10.2142 11.5205 14.8388V19.3549C11.5205 20.5988 12.405 21.6394 13.5779 21.882C13.9399 23.7362 15.0986 25.3052 16.6818 26.2239V26.5581L12.3695 27.3426C10.7469 27.6381 9.41469 28.793 8.8934 30.3575L8.63533 31.1323L6.43791 28.9349C6.1863 28.6833 6.1863 28.2736 6.43791 28.022L8.9863 25.4743L4.20307 20.691L1.32307 23.571C0.470166 24.4239 0.000488281 25.5581 0.000488281 26.7646C0.000488281 27.971 0.470166 29.1046 1.32307 29.9575L10.0424 38.6768C10.8953 39.5298 12.0295 40.0001 13.236 40.0001C14.4424 40.0001 15.576 39.5298 16.4089 38.6962L19.5515 35.8168L18.5715 34.8388H32.4154ZM27.0044 22.5807C27.0044 22.9368 26.7147 23.2259 26.3592 23.2259H25.8166C26.0037 22.7994 26.1457 22.3497 26.2373 21.882C26.5134 21.8246 26.7676 21.7149 27.0044 21.5768V22.5807ZM26.3592 20.4659V18.2439C26.7431 18.4678 27.0044 18.8794 27.0044 19.3549C27.0044 19.8304 26.7431 20.242 26.3592 20.4659ZM13.456 20.4659C13.0721 20.242 12.8108 19.8304 12.8108 19.3549C12.8108 18.8794 13.0721 18.4678 13.456 18.2439V20.4659ZM13.456 16.1291V16.8659C13.2263 16.9259 13.0108 17.0162 12.8108 17.133V14.8388C12.8108 10.9259 15.9947 7.74198 19.9076 7.74198C23.8205 7.74198 27.0044 10.9259 27.0044 14.8388V17.133C26.8044 17.0162 26.5889 16.9252 26.3592 16.8659V16.1291H25.7141C23.8063 16.1291 22.0128 15.3859 20.6631 14.0368L19.9076 13.2813L19.1521 14.0368C17.8024 15.3859 16.0089 16.1291 14.1011 16.1291H13.456ZM14.7463 20.6452V17.3949C16.6837 17.2491 18.4902 16.4497 19.9076 15.102C21.325 16.4497 23.1315 17.2497 25.0689 17.3949V20.6452C25.0689 21.5859 24.8121 22.4659 24.3708 23.2259H19.9076V24.5162H23.3102C22.4005 25.3168 21.2115 25.8065 19.9076 25.8065C17.0618 25.8065 14.7463 23.491 14.7463 20.6452ZM21.8431 26.7994V26.8297L19.9076 28.7652L17.9721 26.8297V26.7994C18.5837 26.9917 19.2334 27.0968 19.9076 27.0968C20.5818 27.0968 21.2315 26.9917 21.8431 26.7994ZM10.1166 30.7652C10.4889 29.6478 11.4405 28.8226 12.5999 28.611L17.1095 27.7917L19.9076 30.5897L22.705 27.7923L27.2141 28.6117C28.3734 28.8233 29.325 29.6478 29.6973 30.7659L30.6257 33.5485H17.2811L14.7682 31.0356L11.976 33.5614C11.7328 33.8059 11.3076 33.8059 11.0637 33.5614L9.65469 32.1523L10.1166 30.7652ZM4.20243 22.5155L7.16114 25.4743L6.46049 26.1749L3.50178 23.2162L4.20243 22.5155ZM15.5153 37.7659C14.9063 38.3736 14.096 38.7098 13.2347 38.7098C12.3734 38.7098 11.5631 38.3736 10.9534 37.7646L2.23404 29.0459C1.62501 28.4368 1.28952 27.6265 1.28952 26.7652C1.28952 25.9033 1.62501 25.093 2.23404 24.4839L2.58888 24.1291L5.54759 27.0878L5.52436 27.111C4.77017 27.8659 4.77017 29.0936 5.52436 29.8485L10.1508 34.4749C10.5166 34.8401 11.0024 35.042 11.5199 35.042C12.0373 35.042 12.5231 34.8407 12.865 34.4975L12.9134 34.4543L15.8857 37.4265L15.5153 37.7659ZM16.8379 36.553L13.8721 33.5872L14.7244 32.8168L17.685 35.7775L16.8379 36.553Z" fill="white"/>
<path d="M37.9721 0H28.9399C27.8728 0 27.0044 0.868388 27.0044 1.93549V7.09678C27.0044 8.16388 27.8728 9.03227 28.9399 9.03227H30.6631L29.996 12.9232L36.2218 9.03227H37.9721C39.0392 9.03227 39.9076 8.16388 39.9076 7.09678V1.93549C39.9076 0.868388 39.0392 0 37.9721 0ZM38.6173 7.09678C38.6173 7.45226 38.3276 7.74194 37.9721 7.74194H35.8515L31.7541 10.3026L32.1934 7.74194H28.9399C28.5844 7.74194 28.2947 7.45226 28.2947 7.09678V1.93549C28.2947 1.58 28.5844 1.29032 28.9399 1.29032H37.9721C38.3276 1.29032 38.6173 1.58 38.6173 1.93549V7.09678Z" fill="white"/>
<path d="M37.3269 2.58057H29.585V3.87089H37.3269V2.58057Z" fill="white"/>
<path d="M34.7463 5.16162H29.585V6.45194H34.7463V5.16162Z" fill="white"/>
<path d="M37.3274 5.16162H36.0371V6.45194H37.3274V5.16162Z" fill="white"/>
<path d="M19.9078 1.93555C11.4781 1.93555 4.21678 7.76652 2.32903 15.9001L1.10645 13.862L0 14.5259L2.26774 18.3046L6.04646 16.0368L5.38259 14.9304L3.6342 15.9794C5.46259 8.53878 12.1536 3.22587 19.9078 3.22587C21.6026 3.22587 23.2749 3.47748 24.8781 3.97426L25.26 2.742C23.5329 2.20651 21.7323 1.93555 19.9078 1.93555Z" fill="white"/>
<path d="M39.5945 14.2853L35.8158 12.0176L33.5487 15.7969L34.6551 16.4608L35.7841 14.5789C36.3783 16.3176 36.6822 18.1363 36.6822 20.0002C36.6822 23.8369 35.3532 27.5879 32.9409 30.5615L33.9429 31.3744C36.5416 28.1718 37.9725 24.1318 37.9725 20.0002C37.9725 18.0266 37.6545 16.0995 37.0345 14.2544L38.9306 15.3918L39.5945 14.2853Z" fill="white"/>
</svg>
