<svg width="16" height="16" viewBox="0 0 16 16" fill="none" xmlns="http://www.w3.org/2000/svg">
<path d="M6.82667 13.7067C6.76733 13.7067 6.70733 13.6913 6.65333 13.658C5.09267 12.706 0 9.19667 0 4.02C0 1.80333 1.80333 0 4.02 0C5.38267 0 6.60467 0.63 7.33333 1.67667C8.062 0.63 9.284 0 10.6467 0C12.8633 0 14.6667 1.80333 14.6667 4.02C14.6667 4.57333 14.6087 5.134 14.4933 5.688C14.4553 5.868 14.2787 5.98133 14.0987 5.94667C13.9187 5.90867 13.8027 5.73267 13.84 5.552C13.946 5.04267 14 4.52733 14 4.02C14 2.17067 12.496 0.666667 10.6467 0.666667C9.33133 0.666667 8.17667 1.36133 7.63267 2.47933C7.52067 2.70867 7.14533 2.70867 7.03333 2.47933C6.49 1.36133 5.33467 0.666667 4.02 0.666667C2.17067 0.666667 0.666667 2.17067 0.666667 4.02C0.666667 8.85 5.51467 12.1827 7 13.0893C7.15733 13.1853 7.20733 13.39 7.11133 13.5473C7.04867 13.65 6.93867 13.7067 6.82667 13.7067Z" fill="#018AFE"/>
<path d="M12 16C11.956 16 11.912 15.9913 11.8707 15.9733C11.712 15.9073 8 14.3027 8 11.024V8.238C8 8.09534 8.09133 7.968 8.22667 7.922L11.8933 6.684C11.9627 6.66067 12.0373 6.66067 12.1067 6.684L15.7733 7.922C15.9087 7.96734 16 8.09467 16 8.238V11.024C16 14.3027 12.288 15.9073 12.1293 15.974C12.088 15.9913 12.044 16 12 16ZM8.66667 8.47734V11.024C8.66667 13.5473 11.37 14.996 12 15.3C12.6293 14.9953 15.3333 13.5413 15.3333 11.024V8.47734L12 7.352L8.66667 8.47734Z" fill="#018AFE"/>
<path d="M11.6668 12.6667C11.6608 12.6667 11.6541 12.6667 11.6481 12.666C11.5535 12.6607 11.4655 12.6153 11.4061 12.5413L10.0728 10.8747C9.95814 10.7307 9.98147 10.5213 10.1248 10.406C10.2688 10.2907 10.4788 10.3147 10.5935 10.458L11.6941 11.834L13.7641 9.764C13.8941 9.634 14.1055 9.634 14.2355 9.764C14.3655 9.894 14.3655 10.1053 14.2355 10.2353L11.9021 12.5687C11.8401 12.632 11.7548 12.6667 11.6668 12.6667Z" fill="#018AFE"/>
</svg>
