<svg width="16" height="16" viewBox="0 0 16 16" fill="none" xmlns="http://www.w3.org/2000/svg">
<path d="M15.772 5.2653L8.3113 0.0974246C8.22021 0.0340002 8.11188 0 8.00089 0C7.8899 0 7.78157 0.0340002 7.69048 0.0974246L5.33362 1.7292V1.5996C5.33362 1.38742 5.24933 1.18393 5.09929 1.0339C4.94926 0.883865 4.74577 0.799577 4.53359 0.799577H3.73357C3.52139 0.799577 3.3179 0.883865 3.16787 1.0339C3.01784 1.18393 2.93355 1.38742 2.93355 1.5996V3.39165L0.228674 5.2653C0.17124 5.3051 0.122221 5.35583 0.0844251 5.4146C0.0466292 5.47337 0.0207985 5.53901 0.00841256 5.60778C-0.00397333 5.67655 -0.00267107 5.74708 0.0122448 5.81534C0.0271606 5.88361 0.0553969 5.94826 0.0953365 6.00559L0.435613 6.4936C0.519272 6.61289 0.646682 6.69429 0.790087 6.72007C0.933492 6.74584 1.08127 6.7139 1.20123 6.63121L1.33457 6.53974V14.6666C1.33499 15.0201 1.47561 15.359 1.72557 15.609C1.97554 15.859 2.31444 15.9996 2.66794 16H13.3338C13.6873 15.9996 14.0262 15.859 14.2762 15.609C14.5262 15.359 14.6668 15.0201 14.6672 14.6666V6.53974L14.8005 6.63121C14.9205 6.7139 15.0683 6.74584 15.2117 6.72007C15.3551 6.69429 15.4825 6.61289 15.5662 6.4936L15.9064 6.00532C15.9464 5.94801 15.9746 5.88338 15.9895 5.81514C16.0044 5.7469 16.0057 5.67639 15.9933 5.60764C15.981 5.5389 15.9551 5.47327 15.9173 5.41453C15.8795 5.35578 15.8305 5.30507 15.7731 5.2653H15.772ZM3.4669 1.5996C3.4669 1.52887 3.49499 1.46104 3.545 1.41103C3.59501 1.36102 3.66284 1.33293 3.73357 1.33293H4.53359C4.60432 1.33293 4.67215 1.36102 4.72216 1.41103C4.77217 1.46104 4.80027 1.52887 4.80027 1.5996V2.09881L3.4669 3.02231V1.5996ZM14.1339 14.6666C14.1339 14.8788 14.0496 15.0823 13.8995 15.2323C13.7495 15.3824 13.546 15.4667 13.3338 15.4667H2.66687C2.4547 15.4667 2.25121 15.3824 2.10117 15.2323C1.95114 15.0823 1.86685 14.8788 1.86685 14.6666V6.17119L8.00676 1.92868L14.1339 6.17039V14.6666ZM15.1032 6.19279L8.3113 1.49106C8.22021 1.42764 8.11188 1.39364 8.00089 1.39364C7.8899 1.39364 7.78157 1.42764 7.69048 1.49106L0.897492 6.19279C0.893619 6.19539 0.888886 6.19637 0.884303 6.19552C0.879719 6.19467 0.875648 6.19207 0.872958 6.18826L0.533482 5.70398L8.00676 0.535303L15.4672 5.70051L15.1032 6.19279Z" fill="#018AFE"/>
<path d="M7.5505 5.01063C7.22356 5.40371 6.40033 6.07279 4.56375 6.13839C4.41226 6.14544 4.26928 6.21042 4.16435 6.31992C4.05943 6.42941 4.00059 6.57503 4 6.72668V8.97767C4 11.2116 5.40617 13.261 7.66997 14.3264C7.77335 14.3744 7.88598 14.3993 7.99998 14.3993C8.11398 14.3993 8.22661 14.3744 8.32999 14.3264C10.594 13.261 12.0002 11.2116 12.0002 8.97767V6.72668C11.9996 6.57516 11.9409 6.42965 11.8362 6.32018C11.7314 6.21071 11.5886 6.14564 11.4373 6.13839C9.59989 6.07279 8.77667 5.40371 8.45052 5.01063C8.3941 4.94697 8.32481 4.89601 8.24724 4.86111C8.16967 4.82621 8.08557 4.80817 8.00051 4.80817C7.91545 4.80817 7.83135 4.82621 7.75378 4.86111C7.67621 4.89601 7.60692 4.94697 7.5505 5.01063ZM11.4173 6.67121C11.4304 6.67361 11.4424 6.6804 11.4512 6.69047C11.46 6.70054 11.4652 6.71331 11.4658 6.72668V8.97767C11.4658 11.0028 10.1767 12.8674 8.10171 13.8439C8.06954 13.859 8.03444 13.8668 7.99891 13.8668C7.96338 13.8668 7.92828 13.859 7.89611 13.8439C5.82245 12.8674 4.53335 11.0028 4.53335 8.97767V6.72668C4.53398 6.71331 4.53912 6.70054 4.54793 6.69047C4.55675 6.6804 4.56871 6.67361 4.58188 6.67121C6.62674 6.59841 7.57637 5.81332 7.96064 5.35171C7.96528 5.34547 7.97132 5.34041 7.97826 5.33692C7.98521 5.33343 7.99287 5.33162 8.00064 5.33162C8.00842 5.33162 8.01608 5.33343 8.02303 5.33692C8.02997 5.34041 8.036 5.34547 8.04065 5.35171C8.42386 5.81305 9.37348 6.59841 11.4183 6.67121H11.4173Z" fill="#018AFE"/>
<path d="M7.69892 6.30827C7.04715 6.74367 6.30312 7.02165 5.52553 7.12029C5.39857 7.13838 5.28238 7.2016 5.19824 7.29837C5.1141 7.39515 5.06764 7.519 5.06738 7.64724V8.97768C5.06738 10.6641 6.06608 12.2287 7.73892 13.1629C7.81905 13.2073 7.90917 13.2306 8.0008 13.2306C8.09242 13.2306 8.18254 13.2073 8.26267 13.1629C9.93552 12.2292 10.9342 10.6647 10.9342 8.97768V7.64724C10.9341 7.51895 10.8877 7.395 10.8036 7.29812C10.7195 7.20124 10.6033 7.13791 10.4763 7.11976C9.69857 7.02132 8.95438 6.74323 8.30267 6.30747C8.21407 6.24576 8.10865 6.21275 8.00067 6.21289C7.89269 6.21303 7.78737 6.24633 7.69892 6.30827ZM10.4009 7.64724V8.97768C10.4009 10.4689 9.50431 11.8594 8.00266 12.6972H7.99893C6.49729 11.8588 5.60073 10.4681 5.60073 8.97768L5.60526 7.64778C6.46211 7.53904 7.28116 7.22947 7.99573 6.74428C8.71619 7.22845 9.53978 7.53765 10.4009 7.64724Z" fill="#018AFE"/>
<path d="M7.12186 9.94466C7.07156 9.89608 7.0042 9.8692 6.93428 9.86981C6.86436 9.87042 6.79747 9.89847 6.74803 9.94791C6.69859 9.99735 6.67054 10.0642 6.66993 10.1342C6.66932 10.2041 6.6962 10.2714 6.74478 10.3217L7.27813 10.8551C7.32813 10.9051 7.39595 10.9332 7.46667 10.9332H7.4856C7.52376 10.9304 7.56087 10.9195 7.59442 10.9011C7.62796 10.8826 7.65715 10.8572 7.68001 10.8266L9.28005 8.69316C9.32249 8.63658 9.34071 8.56546 9.33071 8.49544C9.3207 8.42543 9.2833 8.36225 9.22672 8.31982C9.17013 8.27738 9.09901 8.25916 9.029 8.26916C8.95898 8.27916 8.89581 8.31657 8.85337 8.37315L7.43787 10.2607L7.12186 9.94466Z" fill="#018AFE"/>
</svg>
