<svg width="48" height="48" viewBox="0 0 48 48" fill="none" xmlns="http://www.w3.org/2000/svg">
<path d="M46.7161 15.9961L24.8002 0.815482C24.5326 0.629172 24.2144 0.529297 23.8884 0.529297C23.5623 0.529297 23.2441 0.629172 22.9765 0.815482L16.0532 5.60883V5.22812C16.0532 4.60485 15.8056 4.0071 15.3649 3.56637C14.9242 3.12565 14.3264 2.87806 13.7032 2.87806H11.3531C10.7298 2.87806 10.1321 3.12565 9.69136 3.56637C9.25064 4.0071 9.00304 4.60485 9.00304 5.22812V10.4923L1.05747 15.9961C0.888759 16.113 0.744767 16.2621 0.633741 16.4347C0.522715 16.6073 0.446838 16.8002 0.410454 17.0022C0.374071 17.2042 0.377896 17.4114 0.421711 17.6119C0.465526 17.8124 0.548471 18.0023 0.665793 18.1707L1.66535 19.6043C1.9111 19.9547 2.28537 20.1938 2.70662 20.2695C3.12787 20.3452 3.56198 20.2514 3.91437 20.0085L4.30604 19.7398V43.6125C4.30729 44.6509 4.72035 45.6465 5.45462 46.3807C6.18888 47.115 7.18441 47.5281 8.22282 47.5293H39.5539C40.5923 47.5281 41.5878 47.115 42.3221 46.3807C43.0564 45.6465 43.4694 44.6509 43.4707 43.6125V19.7398L43.8623 20.0085C44.2147 20.2514 44.6488 20.3452 45.0701 20.2695C45.4913 20.1938 45.8656 19.9547 46.1114 19.6043L47.1109 18.1699C47.2282 18.0016 47.3112 17.8117 47.355 17.6113C47.3988 17.4108 47.4026 17.2037 47.3662 17.0017C47.3298 16.7998 47.2539 16.607 47.1429 16.4345C47.0319 16.2619 46.8879 16.1129 46.7192 15.9961H46.7161ZM10.5698 5.22812C10.5698 5.02036 10.6523 4.82111 10.7992 4.67421C10.9461 4.5273 11.1453 4.44477 11.3531 4.44477H13.7032C13.9109 4.44477 14.1102 4.5273 14.2571 4.67421C14.404 4.82111 14.4865 5.02036 14.4865 5.22812V6.69456L10.5698 9.40732V5.22812ZM41.904 43.6125C41.904 44.2358 41.6564 44.8335 41.2156 45.2743C40.7749 45.715 40.1772 45.9626 39.5539 45.9626H8.21969C7.59641 45.9626 6.99866 45.715 6.55794 45.2743C6.11722 44.8335 5.86962 44.2358 5.86962 43.6125V18.6572L23.9056 6.19478L41.904 18.6548V43.6125ZM44.7515 18.7206L24.8002 4.9093C24.5326 4.72299 24.2144 4.62311 23.8884 4.62311C23.5623 4.62311 23.2441 4.72299 22.9765 4.9093L3.02213 18.7206C3.01075 18.7283 2.99685 18.7311 2.98338 18.7286C2.96992 18.7261 2.95796 18.7185 2.95006 18.7073L1.95285 17.2847L23.9056 2.10175L45.8207 17.2746L44.7515 18.7206Z" fill="white"/>
<path d="M22.5663 15.2471C21.6059 16.4017 19.1877 18.3672 13.7927 18.5599C13.3477 18.5806 12.9277 18.7715 12.6195 19.0931C12.3113 19.4147 12.1384 19.8425 12.1367 20.288V26.9003C12.1367 33.4624 16.2673 39.4825 22.9172 42.612C23.2209 42.7532 23.5518 42.8263 23.8867 42.8263C24.2215 42.8263 24.5524 42.7532 24.8561 42.612C31.5067 39.4825 35.6374 33.4624 35.6374 26.9003V20.288C35.6357 19.8429 35.4632 19.4155 35.1554 19.0939C34.8477 18.7723 34.4283 18.5812 33.9837 18.5599C28.5864 18.3672 26.1682 16.4017 25.2101 15.2471C25.0444 15.0601 24.8409 14.9104 24.613 14.8079C24.3851 14.7054 24.1381 14.6523 23.8882 14.6523C23.6383 14.6523 23.3913 14.7054 23.1634 14.8079C22.9356 14.9104 22.7321 15.0601 22.5663 15.2471ZM33.925 20.125C33.9636 20.1321 33.9988 20.152 34.0247 20.1816C34.0506 20.2112 34.0657 20.2487 34.0675 20.288V26.9003C34.0675 32.8491 30.2808 38.3263 24.1855 41.1949C24.091 41.2393 23.9879 41.2622 23.8835 41.2622C23.7791 41.2622 23.676 41.2393 23.5815 41.1949C17.4902 38.3263 13.7034 32.8491 13.7034 26.9003V20.288C13.7053 20.2487 13.7204 20.2112 13.7463 20.1816C13.7722 20.152 13.8073 20.1321 13.846 20.125C19.8528 19.9112 22.6423 17.605 23.7711 16.249C23.7847 16.2307 23.8025 16.2158 23.8229 16.2056C23.8433 16.1953 23.8658 16.19 23.8886 16.19C23.9114 16.19 23.934 16.1953 23.9544 16.2056C23.9748 16.2158 23.9925 16.2307 24.0061 16.249C25.1318 17.6042 27.9213 19.9112 33.9281 20.125H33.925Z" fill="white"/>
<path d="M22.9997 19.0595C21.0851 20.3384 18.8995 21.155 16.6153 21.4448C16.2424 21.4979 15.9011 21.6836 15.6539 21.9679C15.4067 22.2522 15.2703 22.616 15.2695 22.9927V26.9009C15.2695 31.8548 18.2032 36.4507 23.1172 39.1948C23.3526 39.3254 23.6173 39.3938 23.8864 39.3938C24.1556 39.3938 24.4203 39.3254 24.6557 39.1948C29.5697 36.4523 32.5033 31.8564 32.5033 26.9009V22.9927C32.503 22.6158 32.3668 22.2517 32.1198 21.9672C31.8727 21.6826 31.5314 21.4966 31.1583 21.4432C28.8736 21.1541 26.6876 20.3372 24.7732 19.0571C24.5129 18.8759 24.2033 18.7789 23.8861 18.7793C23.5689 18.7797 23.2595 18.8775 22.9997 19.0595ZM30.9366 22.9927V26.9009C30.9366 31.2814 28.303 35.3658 23.8919 37.8271H23.881C19.4699 35.3642 16.8362 31.279 16.8362 26.9009L16.8496 22.9943C19.3665 22.6748 21.7725 21.7655 23.8716 20.3403C25.9879 21.7625 28.4072 22.6708 30.9366 22.9927Z" fill="white"/>
<path d="M21.3071 29.7422C21.1593 29.5995 20.9614 29.5205 20.756 29.5223C20.5506 29.5241 20.3542 29.6065 20.2089 29.7517C20.0637 29.8969 19.9813 30.0934 19.9795 30.2988C19.9777 30.5042 20.0567 30.7021 20.1994 30.8498L21.7661 32.4165C21.913 32.5635 22.1122 32.646 22.3199 32.6461H22.3755C22.4876 32.6379 22.5967 32.6056 22.6952 32.5516C22.7937 32.4975 22.8795 32.4229 22.9466 32.3327L27.6467 26.0659C27.7714 25.8997 27.8249 25.6907 27.7955 25.4851C27.7662 25.2794 27.6563 25.0938 27.4901 24.9692C27.3239 24.8445 27.1149 24.791 26.9093 24.8204C26.7036 24.8498 26.518 24.9596 26.3934 25.1258L22.2353 30.6704L21.3071 29.7422Z" fill="white"/>
</svg>
