<svg width="38" height="27" viewBox="0 0 38 27" fill="none" xmlns="http://www.w3.org/2000/svg">
<path d="M33.8359 1H4.16406C2.42298 1 1 2.39809 1 4.12245V22.8571C1 24.5821 2.4239 25.9796 4.16406 25.9796H33.8359C35.577 25.9796 37 24.5815 37 22.8571V4.12245C37 2.39768 35.5763 1 33.8359 1ZM33.3501 3.08163C32.3271 4.09449 20.311 15.9912 19.8173 16.48C19.405 16.8881 18.5952 16.8884 18.1827 16.48L4.64992 3.08163H33.3501ZM3.10938 22.4745V4.50512L12.1843 13.4898L3.10938 22.4745ZM4.64992 23.898L13.6734 14.9641L16.6888 17.9496C17.9244 19.1729 20.0761 19.1724 21.3113 17.9496L24.3267 14.9642L33.3501 23.898H4.64992ZM34.8906 22.4745L25.8157 13.4898L34.8906 4.50512V22.4745Z" fill="white" stroke="white" stroke-width="0.3"/>
</svg>
