<svg width="54" height="65" viewBox="0 0 54 65" fill="none" xmlns="http://www.w3.org/2000/svg">
<path d="M11.6383 23.875L0 46.7879L9.54924 60.4251L9.03424 64.9728H24.3677L23.8236 51.4258L12.0951 39.514L10.1835 44.7861L14.7312 52.1532L15.3684 58.4263L13.3666 53.1512L8.09154 45.3331L12.9127 32.0567C12.9127 32.0567 15.0047 26.3307 11.6383 23.875Z" fill="#018AFE"/>
<path d="M11.6383 23.875L0 46.7879L9.54924 60.4251L9.03424 64.9728H24.3677L23.8236 51.4258L12.0951 39.514L10.1835 44.7861L14.7312 52.1532L15.3684 58.4263L13.3666 53.1512L8.09154 45.3331L12.9127 32.0567C12.9127 32.0567 15.0047 26.3307 11.6383 23.875Z" fill="white"/>
<path d="M41.5546 23.875L53.1929 46.7879L43.6437 60.4251L44.1587 64.9728H28.8252L29.3693 51.4258L41.0978 39.514L43.0094 44.7861L38.4617 52.1532L37.8245 58.4263L39.8263 53.1512L45.0985 45.3331L40.2802 32.0567C40.2802 32.0567 38.1882 26.3307 41.5546 23.875Z" fill="#018AFE"/>
<path d="M41.5546 23.875L53.1929 46.7879L43.6437 60.4251L44.1587 64.9728H28.8252L29.3693 51.4258L41.0978 39.514L43.0094 44.7861L38.4617 52.1532L37.8245 58.4263L39.8263 53.1512L45.0985 45.3331L40.2802 32.0567C40.2802 32.0567 38.1882 26.3307 41.5546 23.875Z" fill="white"/>
<path d="M7.23828 0C11.9867 3.5846 19.7087 20.4456 19.5633 26.288C19.4702 30.0152 18.6933 34.6764 17.9572 38.3424L25.8916 46.981L33.826 38.3424C33.0899 34.6764 32.313 30.0152 32.2199 26.288C32.0745 20.4456 39.7965 3.5846 44.5449 0C38.9469 1.56244 32.4091 14.2278 25.8916 15.8776C19.3741 14.2278 12.8363 1.56244 7.23828 0Z" fill="white"/>
<path d="M25.8925 2.59766C28.7061 2.59766 30.9843 4.87877 30.9843 7.68942C30.9843 10.503 28.7061 12.7812 25.8925 12.7812C23.079 12.7812 20.8008 10.503 20.8008 7.68942C20.8008 4.87877 23.079 2.59766 25.8925 2.59766Z" fill="white"/>
</svg>
